G04 #@! TF.GenerationSoftware,KiCad,Pcbnew,9.0.4*
G04 #@! TF.CreationDate,2025-08-20T18:17:53-04:00*
G04 #@! TF.ProjectId,jlc_pcba,6a6c635f-7063-4626-912e-6b696361645f,rev?*
G04 #@! TF.SameCoordinates,Original*
G04 #@! TF.FileFunction,Soldermask,Top*
G04 #@! TF.FilePolarity,Negative*
%FSLAX46Y46*%
G04 Gerber Fmt 4.6, Leading zero omitted, Abs format (unit mm)*
G04 Created by KiCad (PCBNEW 9.0.4) date 2025-08-20 18:17:53*
%MOMM*%
%LPD*%
G01*
G04 APERTURE LIST*
G04 Aperture macros list*
%AMRoundRect*
0 Rectangle with rounded corners*
0 $1 Rounding radius*
0 $2 $3 $4 $5 $6 $7 $8 $9 X,Y pos of 4 corners*
0 Add a 4 corners polygon primitive as box body*
4,1,4,$2,$3,$4,$5,$6,$7,$8,$9,$2,$3,0*
0 Add four circle primitives for the rounded corners*
1,1,$1+$1,$2,$3*
1,1,$1+$1,$4,$5*
1,1,$1+$1,$6,$7*
1,1,$1+$1,$8,$9*
0 Add four rect primitives between the rounded corners*
20,1,$1+$1,$2,$3,$4,$5,0*
20,1,$1+$1,$4,$5,$6,$7,0*
20,1,$1+$1,$6,$7,$8,$9,0*
20,1,$1+$1,$8,$9,$2,$3,0*%
%AMRotRect*
0 Rectangle, with rotation*
0 The origin of the aperture is its center*
0 $1 length*
0 $2 width*
0 $3 Rotation angle, in degrees counterclockwise*
0 Add horizontal line*
21,1,$1,$2,0,0,$3*%
G04 Aperture macros list end*
%ADD10C,0.010000*%
%ADD11C,0.000000*%
%ADD12RoundRect,0.160000X-0.252791X0.026517X0.026517X-0.252791X0.252791X-0.026517X-0.026517X0.252791X0*%
%ADD13R,1.000000X1.000000*%
%ADD14RoundRect,0.135000X0.226274X0.035355X0.035355X0.226274X-0.226274X-0.035355X-0.035355X-0.226274X0*%
%ADD15RoundRect,0.135000X0.135000X0.185000X-0.135000X0.185000X-0.135000X-0.185000X0.135000X-0.185000X0*%
%ADD16RoundRect,0.237500X-0.044194X-0.380070X0.380070X0.044194X0.044194X0.380070X-0.380070X-0.044194X0*%
%ADD17RoundRect,0.160000X0.026517X0.252791X-0.252791X-0.026517X-0.026517X-0.252791X0.252791X0.026517X0*%
%ADD18R,0.508000X0.500000*%
%ADD19R,0.508000X0.508000*%
%ADD20RoundRect,0.135000X-0.135000X-0.185000X0.135000X-0.185000X0.135000X0.185000X-0.135000X0.185000X0*%
%ADD21RoundRect,0.140000X-0.021213X0.219203X-0.219203X0.021213X0.021213X-0.219203X0.219203X-0.021213X0*%
%ADD22RoundRect,0.140000X0.219203X0.021213X0.021213X0.219203X-0.219203X-0.021213X-0.021213X-0.219203X0*%
%ADD23RoundRect,0.135000X-0.185000X0.135000X-0.185000X-0.135000X0.185000X-0.135000X0.185000X0.135000X0*%
%ADD24RoundRect,0.250000X-0.450000X0.325000X-0.450000X-0.325000X0.450000X-0.325000X0.450000X0.325000X0*%
%ADD25RotRect,0.508000X0.508000X315.000000*%
%ADD26RoundRect,0.062500X-0.185616X-0.274004X0.274004X0.185616X0.185616X0.274004X-0.274004X-0.185616X0*%
%ADD27RoundRect,0.062500X0.185616X-0.274004X0.274004X-0.185616X-0.185616X0.274004X-0.274004X0.185616X0*%
%ADD28RotRect,2.100000X2.100000X45.000000*%
%ADD29RoundRect,0.062500X0.000000X-0.088388X0.088388X0.000000X0.000000X0.088388X-0.088388X0.000000X0*%
%ADD30RoundRect,0.150000X0.512500X0.150000X-0.512500X0.150000X-0.512500X-0.150000X0.512500X-0.150000X0*%
%ADD31RoundRect,0.237500X-0.300000X-0.237500X0.300000X-0.237500X0.300000X0.237500X-0.300000X0.237500X0*%
%ADD32R,1.700000X1.700000*%
%ADD33O,1.700000X1.700000*%
%ADD34C,3.200000*%
%ADD35RoundRect,0.250000X-0.097227X0.574524X-0.574524X0.097227X0.097227X-0.574524X0.574524X-0.097227X0*%
%ADD36RoundRect,0.135000X-0.226274X-0.035355X-0.035355X-0.226274X0.226274X0.035355X0.035355X0.226274X0*%
%ADD37RoundRect,0.237500X0.237500X-0.300000X0.237500X0.300000X-0.237500X0.300000X-0.237500X-0.300000X0*%
%ADD38RoundRect,0.250000X0.574524X0.097227X0.097227X0.574524X-0.574524X-0.097227X-0.097227X-0.574524X0*%
%ADD39RoundRect,0.250000X0.337500X0.475000X-0.337500X0.475000X-0.337500X-0.475000X0.337500X-0.475000X0*%
%ADD40RoundRect,0.160000X0.197500X0.160000X-0.197500X0.160000X-0.197500X-0.160000X0.197500X-0.160000X0*%
G04 APERTURE END LIST*
G04 #@! TO.C,E109*
G36*
X44013500Y-37469000D02*
G01*
X44521500Y-37469000D01*
X44521500Y-36969000D01*
X44013500Y-36969000D01*
X44013500Y-37469000D01*
G37*
G04 #@! TO.C,5V108*
D10*
X16127500Y-30855000D02*
X14017500Y-30855000D01*
X14017500Y-29855000D01*
X16127500Y-29855000D01*
X16127500Y-30855000D01*
G36*
X16127500Y-30855000D02*
G01*
X14017500Y-30855000D01*
X14017500Y-29855000D01*
X16127500Y-29855000D01*
X16127500Y-30855000D01*
G37*
D11*
G04 #@! TO.C,DOUT108*
G36*
X21821053Y-24449343D02*
G01*
X21461843Y-24808553D01*
X21113947Y-24460657D01*
X21473157Y-24101447D01*
X21821053Y-24449343D01*
G37*
G04 #@! TO.C,5V108*
D10*
X60127500Y-59315000D02*
X58017500Y-59315000D01*
X58017500Y-58315000D01*
X60127500Y-58315000D01*
X60127500Y-59315000D01*
G36*
X60127500Y-59315000D02*
G01*
X58017500Y-59315000D01*
X58017500Y-58315000D01*
X60127500Y-58315000D01*
X60127500Y-59315000D01*
G37*
G04 #@! TO.C,G117*
G36*
X65413500Y-31309000D02*
G01*
X65921500Y-31309000D01*
X65921500Y-30809000D01*
X65413500Y-30809000D01*
X65413500Y-31309000D01*
G37*
D11*
G04 #@! TO.C,DOUT108*
G36*
X21821053Y-52909343D02*
G01*
X21461843Y-53268553D01*
X21113947Y-52920657D01*
X21473157Y-52561447D01*
X21821053Y-52909343D01*
G37*
G04 #@! TO.C,5V108*
D10*
X60127500Y-30855000D02*
X58017500Y-30855000D01*
X58017500Y-29855000D01*
X60127500Y-29855000D01*
X60127500Y-30855000D01*
G36*
X60127500Y-30855000D02*
G01*
X58017500Y-30855000D01*
X58017500Y-29855000D01*
X60127500Y-29855000D01*
X60127500Y-30855000D01*
G37*
G04 #@! TO.C,E108*
G36*
X21613500Y-9009000D02*
G01*
X22121500Y-9009000D01*
X22121500Y-8509000D01*
X21613500Y-8509000D01*
X21613500Y-9009000D01*
G37*
G04 #@! TO.C,G117*
G36*
X21413500Y-31309000D02*
G01*
X21921500Y-31309000D01*
X21921500Y-30809000D01*
X21413500Y-30809000D01*
X21413500Y-31309000D01*
G37*
G04 #@! TO.C,E108*
G36*
X65613500Y-9009000D02*
G01*
X66121500Y-9009000D01*
X66121500Y-8509000D01*
X65613500Y-8509000D01*
X65613500Y-9009000D01*
G37*
D11*
G04 #@! TO.C,DOUT108*
G36*
X65821053Y-52909343D02*
G01*
X65461843Y-53268553D01*
X65113947Y-52920657D01*
X65473157Y-52561447D01*
X65821053Y-52909343D01*
G37*
G04 #@! TO.C,E109*
G36*
X88013500Y-9009000D02*
G01*
X88521500Y-9009000D01*
X88521500Y-8509000D01*
X88013500Y-8509000D01*
X88013500Y-9009000D01*
G37*
G04 #@! TO.C,G118*
G36*
X88113500Y-60369000D02*
G01*
X88621500Y-60369000D01*
X88621500Y-59869000D01*
X88113500Y-59869000D01*
X88113500Y-60369000D01*
G37*
G36*
X44113500Y-31909000D02*
G01*
X44621500Y-31909000D01*
X44621500Y-31409000D01*
X44113500Y-31409000D01*
X44113500Y-31909000D01*
G37*
G04 #@! TO.C,E108*
G36*
X21613500Y-37469000D02*
G01*
X22121500Y-37469000D01*
X22121500Y-36969000D01*
X21613500Y-36969000D01*
X21613500Y-37469000D01*
G37*
G04 #@! TO.C,G117*
G36*
X21413500Y-59769000D02*
G01*
X21921500Y-59769000D01*
X21921500Y-59269000D01*
X21413500Y-59269000D01*
X21413500Y-59769000D01*
G37*
G04 #@! TO.C,E108*
G36*
X65613500Y-37469000D02*
G01*
X66121500Y-37469000D01*
X66121500Y-36969000D01*
X65613500Y-36969000D01*
X65613500Y-37469000D01*
G37*
G04 #@! TO.C,G118*
G36*
X88113500Y-31909000D02*
G01*
X88621500Y-31909000D01*
X88621500Y-31409000D01*
X88113500Y-31409000D01*
X88113500Y-31909000D01*
G37*
G04 #@! TO.C,E109*
G36*
X44013500Y-9009000D02*
G01*
X44521500Y-9009000D01*
X44521500Y-8509000D01*
X44013500Y-8509000D01*
X44013500Y-9009000D01*
G37*
G04 #@! TO.C,DOUT108*
G36*
X65821053Y-24449343D02*
G01*
X65461843Y-24808553D01*
X65113947Y-24460657D01*
X65473157Y-24101447D01*
X65821053Y-24449343D01*
G37*
G04 #@! TO.C,5V108*
D10*
X16127500Y-59315000D02*
X14017500Y-59315000D01*
X14017500Y-58315000D01*
X16127500Y-58315000D01*
X16127500Y-59315000D01*
G36*
X16127500Y-59315000D02*
G01*
X14017500Y-59315000D01*
X14017500Y-58315000D01*
X16127500Y-58315000D01*
X16127500Y-59315000D01*
G37*
G04 #@! TO.C,G118*
G36*
X44113500Y-60369000D02*
G01*
X44621500Y-60369000D01*
X44621500Y-59869000D01*
X44113500Y-59869000D01*
X44113500Y-60369000D01*
G37*
G04 #@! TO.C,E109*
G36*
X88013500Y-37469000D02*
G01*
X88521500Y-37469000D01*
X88521500Y-36969000D01*
X88013500Y-36969000D01*
X88013500Y-37469000D01*
G37*
G04 #@! TO.C,G117*
G36*
X65413500Y-59769000D02*
G01*
X65921500Y-59769000D01*
X65921500Y-59269000D01*
X65413500Y-59269000D01*
X65413500Y-59769000D01*
G37*
G04 #@! TD*
D12*
G04 #@! TO.C,R112*
X36989996Y-51537496D03*
X36145004Y-50692504D03*
G04 #@! TD*
D13*
G04 #@! TO.C,PU_EN108*
X29717500Y-56115000D03*
X31017500Y-56115000D03*
G04 #@! TD*
D14*
G04 #@! TO.C,R120*
X77728124Y-26015624D03*
X77006876Y-25294376D03*
G04 #@! TD*
D15*
G04 #@! TO.C,R122*
X42277500Y-21955000D03*
X41257500Y-21955000D03*
G04 #@! TD*
G04 #@! TO.C,R122*
X86277500Y-21955000D03*
X85257500Y-21955000D03*
G04 #@! TD*
D16*
G04 #@! TO.C,C119*
X24757620Y-21064880D03*
X25977380Y-19845120D03*
G04 #@! TD*
D12*
G04 #@! TO.C,R113*
X36189996Y-23877496D03*
X35345004Y-23032504D03*
G04 #@! TD*
D17*
G04 #@! TO.C,R115*
X27612834Y-52223704D03*
X28457826Y-51378712D03*
G04 #@! TD*
D18*
G04 #@! TO.C,E109*
X44267500Y-37719000D03*
D19*
X44267500Y-36715000D03*
G04 #@! TD*
D17*
G04 #@! TO.C,R115*
X27612834Y-23763704D03*
X28457826Y-22918712D03*
G04 #@! TD*
D20*
G04 #@! TO.C,R123*
X87257500Y-50415000D03*
X88277500Y-50415000D03*
G04 #@! TD*
D15*
G04 #@! TO.C,R124*
X84077500Y-50415000D03*
X83057500Y-50415000D03*
G04 #@! TD*
D21*
G04 #@! TO.C,C112*
X74706911Y-25315589D03*
X74028089Y-25994411D03*
G04 #@! TD*
D22*
G04 #@! TO.C,C109*
X71706911Y-18194411D03*
X71028089Y-17515589D03*
G04 #@! TD*
D17*
G04 #@! TO.C,R118*
X28956337Y-53567207D03*
X29801329Y-52722215D03*
G04 #@! TD*
D15*
G04 #@! TO.C,R124*
X84077500Y-21955000D03*
X83057500Y-21955000D03*
G04 #@! TD*
D23*
G04 #@! TO.C,R126*
X88367500Y-53905000D03*
X88367500Y-54925000D03*
G04 #@! TD*
D17*
G04 #@! TO.C,R119*
X26941083Y-23091952D03*
X27786075Y-22246960D03*
G04 #@! TD*
D21*
G04 #@! TO.C,C112*
X30706911Y-25315589D03*
X30028089Y-25994411D03*
G04 #@! TD*
D12*
G04 #@! TO.C,R110*
X81789996Y-50737496D03*
X80945004Y-49892504D03*
G04 #@! TD*
D24*
G04 #@! TO.C,D116*
X42342500Y-25305000D03*
X42342500Y-27355000D03*
G04 #@! TD*
D25*
G04 #@! TO.C,DOUT108*
X21821053Y-24808553D03*
X21113947Y-24101447D03*
G04 #@! TD*
D23*
G04 #@! TO.C,R126*
X88367500Y-25445000D03*
X88367500Y-26465000D03*
G04 #@! TD*
D26*
G04 #@! TO.C,TAC5212*
X73647275Y-20962005D03*
X74000828Y-21315559D03*
X74354382Y-21669112D03*
X74707935Y-22022665D03*
X75061488Y-22376219D03*
X75415042Y-22729772D03*
D27*
X76458024Y-22729772D03*
X76811578Y-22376219D03*
X77165131Y-22022665D03*
X77518684Y-21669112D03*
X77872238Y-21315559D03*
X78225791Y-20962005D03*
D26*
X78225791Y-19919023D03*
X77872238Y-19565469D03*
X77518684Y-19211916D03*
X77165131Y-18858363D03*
X76811578Y-18504809D03*
X76458024Y-18151256D03*
D27*
X75415042Y-18151256D03*
X75061488Y-18504809D03*
X74707935Y-18858363D03*
X74354382Y-19211916D03*
X74000828Y-19565469D03*
X73647275Y-19919023D03*
D28*
X75936533Y-20440514D03*
D29*
X73504086Y-20440514D03*
X75936533Y-22872961D03*
X78368980Y-20440514D03*
X75936533Y-18008067D03*
G04 #@! TD*
D21*
G04 #@! TO.C,C116*
X70906911Y-49775589D03*
X70228089Y-50454411D03*
G04 #@! TD*
D15*
G04 #@! TO.C,R122*
X42277500Y-50415000D03*
X41257500Y-50415000D03*
G04 #@! TD*
D12*
G04 #@! TO.C,R113*
X36189996Y-52337496D03*
X35345004Y-51492504D03*
G04 #@! TD*
D20*
G04 #@! TO.C,R123*
X43257500Y-21955000D03*
X44277500Y-21955000D03*
G04 #@! TD*
D12*
G04 #@! TO.C,R112*
X80989996Y-51537496D03*
X80145004Y-50692504D03*
G04 #@! TD*
D30*
G04 #@! TO.C,U108*
X19305000Y-53565000D03*
X19305000Y-52615000D03*
X19305000Y-51665000D03*
X17030000Y-51665000D03*
X17030000Y-53565000D03*
G04 #@! TD*
D13*
G04 #@! TO.C,ADD112*
X84767500Y-20655000D03*
X84767500Y-19355000D03*
G04 #@! TD*
D31*
G04 #@! TO.C,C128*
X18105000Y-27055000D03*
X19830000Y-27055000D03*
G04 #@! TD*
D32*
G04 #@! TO.C,board_outline108*
X11505000Y-60115000D03*
D33*
X8965000Y-60115000D03*
X11505000Y-57575000D03*
X8965000Y-57575000D03*
X11505000Y-55035000D03*
X8965000Y-55035000D03*
X11505000Y-52495000D03*
X8965000Y-52495000D03*
X11505000Y-49955000D03*
X8965000Y-49955000D03*
X11505000Y-47415000D03*
X8965000Y-47415000D03*
X11505000Y-44875000D03*
X8965000Y-44875000D03*
X11505000Y-42335000D03*
X8965000Y-42335000D03*
X11505000Y-39795000D03*
X8965000Y-39795000D03*
X11505000Y-37255000D03*
X8965000Y-37255000D03*
D32*
X24215000Y-39800000D03*
X24215000Y-37260000D03*
D33*
X26755000Y-39800000D03*
X26755000Y-37260000D03*
X29295000Y-39800000D03*
X29295000Y-37260000D03*
X31835000Y-39800000D03*
X31835000Y-37260000D03*
X34375000Y-39800000D03*
X34375000Y-37260000D03*
X36915000Y-39800000D03*
X36915000Y-37260000D03*
X39455000Y-39800000D03*
X39455000Y-37260000D03*
X41995000Y-39800000D03*
X41995000Y-37260000D03*
D32*
X24215000Y-60120000D03*
D33*
X26755000Y-60120000D03*
X29295000Y-60120000D03*
X31835000Y-60120000D03*
X34375000Y-60120000D03*
X36915000Y-60120000D03*
X39455000Y-60120000D03*
X41995000Y-60120000D03*
X47060000Y-55040000D03*
X47060000Y-52500000D03*
X47060000Y-49960000D03*
X44520000Y-39800000D03*
D34*
X19120000Y-37260000D03*
X47060000Y-37260000D03*
X19120000Y-60120000D03*
X47060000Y-60120000D03*
G04 #@! TD*
D15*
G04 #@! TO.C,R124*
X40077500Y-50415000D03*
X39057500Y-50415000D03*
G04 #@! TD*
D35*
G04 #@! TO.C,C108*
X24901123Y-46681377D03*
X23433877Y-48148623D03*
G04 #@! TD*
D36*
G04 #@! TO.C,R121*
X32206876Y-26094376D03*
X32928124Y-26815624D03*
G04 #@! TD*
D13*
G04 #@! TO.C,ADD108*
X39167500Y-20655000D03*
X39167500Y-19355000D03*
G04 #@! TD*
D12*
G04 #@! TO.C,R114*
X35389996Y-53137496D03*
X34545004Y-52292504D03*
G04 #@! TD*
D17*
G04 #@! TO.C,R117*
X28284586Y-52895455D03*
X29129578Y-52050463D03*
G04 #@! TD*
D37*
G04 #@! TO.C,C118*
X91367500Y-42177500D03*
X91367500Y-40452500D03*
G04 #@! TD*
D21*
G04 #@! TO.C,C112*
X30706911Y-53775589D03*
X30028089Y-54454411D03*
G04 #@! TD*
D18*
G04 #@! TO.C,G117*
X65667500Y-31559000D03*
D19*
X65667500Y-30555000D03*
G04 #@! TD*
D12*
G04 #@! TO.C,R110*
X81789996Y-22277496D03*
X80945004Y-21432504D03*
G04 #@! TD*
D13*
G04 #@! TO.C,ADD110*
X42367500Y-49115000D03*
X42367500Y-47815000D03*
G04 #@! TD*
G04 #@! TO.C,PU_EN108*
X73717500Y-27655000D03*
X75017500Y-27655000D03*
G04 #@! TD*
D12*
G04 #@! TO.C,R114*
X79389996Y-24677496D03*
X78545004Y-23832504D03*
G04 #@! TD*
D31*
G04 #@! TO.C,C128*
X18105000Y-55515000D03*
X19830000Y-55515000D03*
G04 #@! TD*
D26*
G04 #@! TO.C,TAC5212*
X29647275Y-49422005D03*
X30000828Y-49775559D03*
X30354382Y-50129112D03*
X30707935Y-50482665D03*
X31061488Y-50836219D03*
X31415042Y-51189772D03*
D27*
X32458024Y-51189772D03*
X32811578Y-50836219D03*
X33165131Y-50482665D03*
X33518684Y-50129112D03*
X33872238Y-49775559D03*
X34225791Y-49422005D03*
D26*
X34225791Y-48379023D03*
X33872238Y-48025469D03*
X33518684Y-47671916D03*
X33165131Y-47318363D03*
X32811578Y-46964809D03*
X32458024Y-46611256D03*
D27*
X31415042Y-46611256D03*
X31061488Y-46964809D03*
X30707935Y-47318363D03*
X30354382Y-47671916D03*
X30000828Y-48025469D03*
X29647275Y-48379023D03*
D28*
X31936533Y-48900514D03*
D29*
X29504086Y-48900514D03*
X31936533Y-51332961D03*
X34368980Y-48900514D03*
X31936533Y-46468067D03*
G04 #@! TD*
D25*
G04 #@! TO.C,DOUT108*
X21821053Y-53268553D03*
X21113947Y-52561447D03*
G04 #@! TD*
D24*
G04 #@! TO.C,D116*
X42342500Y-53765000D03*
X42342500Y-55815000D03*
G04 #@! TD*
D38*
G04 #@! TO.C,C115*
X68301123Y-23488623D03*
X66833877Y-22021377D03*
G04 #@! TD*
D13*
G04 #@! TO.C,ADD111*
X87967500Y-20655000D03*
X87967500Y-19355000D03*
G04 #@! TD*
D17*
G04 #@! TO.C,R118*
X72956337Y-25107207D03*
X73801329Y-24262215D03*
G04 #@! TD*
D39*
G04 #@! TO.C,C111*
X28205000Y-27255000D03*
X26130000Y-27255000D03*
G04 #@! TD*
D17*
G04 #@! TO.C,R119*
X26941083Y-51551952D03*
X27786075Y-50706960D03*
G04 #@! TD*
D18*
G04 #@! TO.C,E108*
X21867500Y-9259000D03*
D19*
X21867500Y-8255000D03*
G04 #@! TD*
D18*
G04 #@! TO.C,G117*
X21667500Y-31559000D03*
D19*
X21667500Y-30555000D03*
G04 #@! TD*
D13*
G04 #@! TO.C,ADD111*
X43967500Y-49115000D03*
X43967500Y-47815000D03*
G04 #@! TD*
D17*
G04 #@! TO.C,R115*
X71612834Y-23763704D03*
X72457826Y-22918712D03*
G04 #@! TD*
D39*
G04 #@! TO.C,C111*
X72205000Y-27255000D03*
X70130000Y-27255000D03*
G04 #@! TD*
D35*
G04 #@! TO.C,C108*
X68901123Y-46681377D03*
X67433877Y-48148623D03*
G04 #@! TD*
D13*
G04 #@! TO.C,ADD110*
X42367500Y-20655000D03*
X42367500Y-19355000D03*
G04 #@! TD*
G04 #@! TO.C,ADD112*
X40767500Y-20655000D03*
X40767500Y-19355000D03*
G04 #@! TD*
D35*
G04 #@! TO.C,C108*
X68901123Y-18221377D03*
X67433877Y-19688623D03*
G04 #@! TD*
D22*
G04 #@! TO.C,C109*
X27706911Y-18194411D03*
X27028089Y-17515589D03*
G04 #@! TD*
D26*
G04 #@! TO.C,TAC5212*
X29647275Y-20962005D03*
X30000828Y-21315559D03*
X30354382Y-21669112D03*
X30707935Y-22022665D03*
X31061488Y-22376219D03*
X31415042Y-22729772D03*
D27*
X32458024Y-22729772D03*
X32811578Y-22376219D03*
X33165131Y-22022665D03*
X33518684Y-21669112D03*
X33872238Y-21315559D03*
X34225791Y-20962005D03*
D26*
X34225791Y-19919023D03*
X33872238Y-19565469D03*
X33518684Y-19211916D03*
X33165131Y-18858363D03*
X32811578Y-18504809D03*
X32458024Y-18151256D03*
D27*
X31415042Y-18151256D03*
X31061488Y-18504809D03*
X30707935Y-18858363D03*
X30354382Y-19211916D03*
X30000828Y-19565469D03*
X29647275Y-19919023D03*
D28*
X31936533Y-20440514D03*
D29*
X29504086Y-20440514D03*
X31936533Y-22872961D03*
X34368980Y-20440514D03*
X31936533Y-18008067D03*
G04 #@! TD*
D17*
G04 #@! TO.C,R119*
X70941083Y-51551952D03*
X71786075Y-50706960D03*
G04 #@! TD*
D30*
G04 #@! TO.C,U108*
X63305000Y-25105000D03*
X63305000Y-24155000D03*
X63305000Y-23205000D03*
X61030000Y-23205000D03*
X61030000Y-25105000D03*
G04 #@! TD*
D18*
G04 #@! TO.C,E108*
X65867500Y-9259000D03*
D19*
X65867500Y-8255000D03*
G04 #@! TD*
D16*
G04 #@! TO.C,C119*
X68757620Y-21064880D03*
X69977380Y-19845120D03*
G04 #@! TD*
D13*
G04 #@! TO.C,ADD110*
X86367500Y-20655000D03*
X86367500Y-19355000D03*
G04 #@! TD*
D37*
G04 #@! TO.C,C118*
X91367500Y-13717500D03*
X91367500Y-11992500D03*
G04 #@! TD*
D23*
G04 #@! TO.C,R126*
X44367500Y-53905000D03*
X44367500Y-54925000D03*
G04 #@! TD*
D40*
G04 #@! TO.C,R125*
X16670000Y-21655000D03*
X17865000Y-21655000D03*
G04 #@! TD*
D25*
G04 #@! TO.C,DOUT108*
X65821053Y-53268553D03*
X65113947Y-52561447D03*
G04 #@! TD*
D24*
G04 #@! TO.C,D116*
X86342500Y-25305000D03*
X86342500Y-27355000D03*
G04 #@! TD*
D18*
G04 #@! TO.C,E109*
X88267500Y-9259000D03*
D19*
X88267500Y-8255000D03*
G04 #@! TD*
D13*
G04 #@! TO.C,ADD112*
X40767500Y-49115000D03*
X40767500Y-47815000D03*
G04 #@! TD*
G04 #@! TO.C,ADD111*
X87967500Y-49115000D03*
X87967500Y-47815000D03*
G04 #@! TD*
D18*
G04 #@! TO.C,G118*
X88367500Y-60619000D03*
D19*
X88367500Y-59615000D03*
G04 #@! TD*
D15*
G04 #@! TO.C,R122*
X86277500Y-50415000D03*
X85257500Y-50415000D03*
G04 #@! TD*
D16*
G04 #@! TO.C,C119*
X24757620Y-49524880D03*
X25977380Y-48305120D03*
G04 #@! TD*
D39*
G04 #@! TO.C,C111*
X72205000Y-55715000D03*
X70130000Y-55715000D03*
G04 #@! TD*
D20*
G04 #@! TO.C,R123*
X43257500Y-50415000D03*
X44277500Y-50415000D03*
G04 #@! TD*
D18*
G04 #@! TO.C,G118*
X44367500Y-32159000D03*
D19*
X44367500Y-31155000D03*
G04 #@! TD*
D22*
G04 #@! TO.C,C109*
X71706911Y-46654411D03*
X71028089Y-45975589D03*
G04 #@! TD*
D24*
G04 #@! TO.C,D116*
X86342500Y-53765000D03*
X86342500Y-55815000D03*
G04 #@! TD*
D12*
G04 #@! TO.C,R112*
X36989996Y-23077496D03*
X36145004Y-22232504D03*
G04 #@! TD*
D16*
G04 #@! TO.C,C119*
X68757620Y-49524880D03*
X69977380Y-48305120D03*
G04 #@! TD*
D12*
G04 #@! TO.C,R112*
X80989996Y-23077496D03*
X80145004Y-22232504D03*
G04 #@! TD*
D18*
G04 #@! TO.C,E108*
X21867500Y-37719000D03*
D19*
X21867500Y-36715000D03*
G04 #@! TD*
D14*
G04 #@! TO.C,R120*
X33728124Y-26015624D03*
X33006876Y-25294376D03*
G04 #@! TD*
D18*
G04 #@! TO.C,G117*
X21667500Y-60019000D03*
D19*
X21667500Y-59015000D03*
G04 #@! TD*
D14*
G04 #@! TO.C,R120*
X33728124Y-54475624D03*
X33006876Y-53754376D03*
G04 #@! TD*
D37*
G04 #@! TO.C,C118*
X47367500Y-42177500D03*
X47367500Y-40452500D03*
G04 #@! TD*
D17*
G04 #@! TO.C,R118*
X28956337Y-25107207D03*
X29801329Y-24262215D03*
G04 #@! TD*
D36*
G04 #@! TO.C,R121*
X32206876Y-54554376D03*
X32928124Y-55275624D03*
G04 #@! TD*
D17*
G04 #@! TO.C,R117*
X28284586Y-24435455D03*
X29129578Y-23590463D03*
G04 #@! TD*
D32*
G04 #@! TO.C,board_outline108*
X11505000Y-31655000D03*
D33*
X8965000Y-31655000D03*
X11505000Y-29115000D03*
X8965000Y-29115000D03*
X11505000Y-26575000D03*
X8965000Y-26575000D03*
X11505000Y-24035000D03*
X8965000Y-24035000D03*
X11505000Y-21495000D03*
X8965000Y-21495000D03*
X11505000Y-18955000D03*
X8965000Y-18955000D03*
X11505000Y-16415000D03*
X8965000Y-16415000D03*
X11505000Y-13875000D03*
X8965000Y-13875000D03*
X11505000Y-11335000D03*
X8965000Y-11335000D03*
X11505000Y-8795000D03*
X8965000Y-8795000D03*
D32*
X24215000Y-11340000D03*
X24215000Y-8800000D03*
D33*
X26755000Y-11340000D03*
X26755000Y-8800000D03*
X29295000Y-11340000D03*
X29295000Y-8800000D03*
X31835000Y-11340000D03*
X31835000Y-8800000D03*
X34375000Y-11340000D03*
X34375000Y-8800000D03*
X36915000Y-11340000D03*
X36915000Y-8800000D03*
X39455000Y-11340000D03*
X39455000Y-8800000D03*
X41995000Y-11340000D03*
X41995000Y-8800000D03*
D32*
X24215000Y-31660000D03*
D33*
X26755000Y-31660000D03*
X29295000Y-31660000D03*
X31835000Y-31660000D03*
X34375000Y-31660000D03*
X36915000Y-31660000D03*
X39455000Y-31660000D03*
X41995000Y-31660000D03*
X47060000Y-26580000D03*
X47060000Y-24040000D03*
X47060000Y-21500000D03*
X44520000Y-11340000D03*
D34*
X19120000Y-8800000D03*
X47060000Y-8800000D03*
X19120000Y-31660000D03*
X47060000Y-31660000D03*
G04 #@! TD*
D12*
G04 #@! TO.C,R113*
X80189996Y-52337496D03*
X79345004Y-51492504D03*
G04 #@! TD*
G04 #@! TO.C,R110*
X37789996Y-50737496D03*
X36945004Y-49892504D03*
G04 #@! TD*
D17*
G04 #@! TO.C,R118*
X72956337Y-53567207D03*
X73801329Y-52722215D03*
G04 #@! TD*
D20*
G04 #@! TO.C,R123*
X87257500Y-21955000D03*
X88277500Y-21955000D03*
G04 #@! TD*
D13*
G04 #@! TO.C,ADD110*
X86367500Y-49115000D03*
X86367500Y-47815000D03*
G04 #@! TD*
D23*
G04 #@! TO.C,R126*
X44367500Y-25445000D03*
X44367500Y-26465000D03*
G04 #@! TD*
D18*
G04 #@! TO.C,E108*
X65867500Y-37719000D03*
D19*
X65867500Y-36715000D03*
G04 #@! TD*
D36*
G04 #@! TO.C,R121*
X76206876Y-54554376D03*
X76928124Y-55275624D03*
G04 #@! TD*
D32*
G04 #@! TO.C,board_outline108*
X55505000Y-60115000D03*
D33*
X52965000Y-60115000D03*
X55505000Y-57575000D03*
X52965000Y-57575000D03*
X55505000Y-55035000D03*
X52965000Y-55035000D03*
X55505000Y-52495000D03*
X52965000Y-52495000D03*
X55505000Y-49955000D03*
X52965000Y-49955000D03*
X55505000Y-47415000D03*
X52965000Y-47415000D03*
X55505000Y-44875000D03*
X52965000Y-44875000D03*
X55505000Y-42335000D03*
X52965000Y-42335000D03*
X55505000Y-39795000D03*
X52965000Y-39795000D03*
X55505000Y-37255000D03*
X52965000Y-37255000D03*
D32*
X68215000Y-39800000D03*
X68215000Y-37260000D03*
D33*
X70755000Y-39800000D03*
X70755000Y-37260000D03*
X73295000Y-39800000D03*
X73295000Y-37260000D03*
X75835000Y-39800000D03*
X75835000Y-37260000D03*
X78375000Y-39800000D03*
X78375000Y-37260000D03*
X80915000Y-39800000D03*
X80915000Y-37260000D03*
X83455000Y-39800000D03*
X83455000Y-37260000D03*
X85995000Y-39800000D03*
X85995000Y-37260000D03*
D32*
X68215000Y-60120000D03*
D33*
X70755000Y-60120000D03*
X73295000Y-60120000D03*
X75835000Y-60120000D03*
X78375000Y-60120000D03*
X80915000Y-60120000D03*
X83455000Y-60120000D03*
X85995000Y-60120000D03*
X91060000Y-55040000D03*
X91060000Y-52500000D03*
X91060000Y-49960000D03*
X88520000Y-39800000D03*
D34*
X63120000Y-37260000D03*
X91060000Y-37260000D03*
X63120000Y-60120000D03*
X91060000Y-60120000D03*
G04 #@! TD*
D32*
G04 #@! TO.C,board_outline108*
X55505000Y-31655000D03*
D33*
X52965000Y-31655000D03*
X55505000Y-29115000D03*
X52965000Y-29115000D03*
X55505000Y-26575000D03*
X52965000Y-26575000D03*
X55505000Y-24035000D03*
X52965000Y-24035000D03*
X55505000Y-21495000D03*
X52965000Y-21495000D03*
X55505000Y-18955000D03*
X52965000Y-18955000D03*
X55505000Y-16415000D03*
X52965000Y-16415000D03*
X55505000Y-13875000D03*
X52965000Y-13875000D03*
X55505000Y-11335000D03*
X52965000Y-11335000D03*
X55505000Y-8795000D03*
X52965000Y-8795000D03*
D32*
X68215000Y-11340000D03*
X68215000Y-8800000D03*
D33*
X70755000Y-11340000D03*
X70755000Y-8800000D03*
X73295000Y-11340000D03*
X73295000Y-8800000D03*
X75835000Y-11340000D03*
X75835000Y-8800000D03*
X78375000Y-11340000D03*
X78375000Y-8800000D03*
X80915000Y-11340000D03*
X80915000Y-8800000D03*
X83455000Y-11340000D03*
X83455000Y-8800000D03*
X85995000Y-11340000D03*
X85995000Y-8800000D03*
D32*
X68215000Y-31660000D03*
D33*
X70755000Y-31660000D03*
X73295000Y-31660000D03*
X75835000Y-31660000D03*
X78375000Y-31660000D03*
X80915000Y-31660000D03*
X83455000Y-31660000D03*
X85995000Y-31660000D03*
X91060000Y-26580000D03*
X91060000Y-24040000D03*
X91060000Y-21500000D03*
X88520000Y-11340000D03*
D34*
X63120000Y-8800000D03*
X91060000Y-8800000D03*
X63120000Y-31660000D03*
X91060000Y-31660000D03*
G04 #@! TD*
D30*
G04 #@! TO.C,U108*
X19305000Y-25105000D03*
X19305000Y-24155000D03*
X19305000Y-23205000D03*
X17030000Y-23205000D03*
X17030000Y-25105000D03*
G04 #@! TD*
D21*
G04 #@! TO.C,C112*
X74706911Y-53775589D03*
X74028089Y-54454411D03*
G04 #@! TD*
D12*
G04 #@! TO.C,R113*
X80189996Y-23877496D03*
X79345004Y-23032504D03*
G04 #@! TD*
D31*
G04 #@! TO.C,C128*
X62105000Y-55515000D03*
X63830000Y-55515000D03*
G04 #@! TD*
D12*
G04 #@! TO.C,R114*
X79389996Y-53137496D03*
X78545004Y-52292504D03*
G04 #@! TD*
D38*
G04 #@! TO.C,C115*
X68301123Y-51948623D03*
X66833877Y-50481377D03*
G04 #@! TD*
D13*
G04 #@! TO.C,ADD111*
X43967500Y-20655000D03*
X43967500Y-19355000D03*
G04 #@! TD*
D35*
G04 #@! TO.C,C108*
X24901123Y-18221377D03*
X23433877Y-19688623D03*
G04 #@! TD*
D39*
G04 #@! TO.C,C111*
X28205000Y-55715000D03*
X26130000Y-55715000D03*
G04 #@! TD*
D26*
G04 #@! TO.C,TAC5212*
X73647275Y-49422005D03*
X74000828Y-49775559D03*
X74354382Y-50129112D03*
X74707935Y-50482665D03*
X75061488Y-50836219D03*
X75415042Y-51189772D03*
D27*
X76458024Y-51189772D03*
X76811578Y-50836219D03*
X77165131Y-50482665D03*
X77518684Y-50129112D03*
X77872238Y-49775559D03*
X78225791Y-49422005D03*
D26*
X78225791Y-48379023D03*
X77872238Y-48025469D03*
X77518684Y-47671916D03*
X77165131Y-47318363D03*
X76811578Y-46964809D03*
X76458024Y-46611256D03*
D27*
X75415042Y-46611256D03*
X75061488Y-46964809D03*
X74707935Y-47318363D03*
X74354382Y-47671916D03*
X74000828Y-48025469D03*
X73647275Y-48379023D03*
D28*
X75936533Y-48900514D03*
D29*
X73504086Y-48900514D03*
X75936533Y-51332961D03*
X78368980Y-48900514D03*
X75936533Y-46468067D03*
G04 #@! TD*
D13*
G04 #@! TO.C,ADD108*
X83167500Y-20655000D03*
X83167500Y-19355000D03*
G04 #@! TD*
D40*
G04 #@! TO.C,R125*
X60670000Y-21655000D03*
X61865000Y-21655000D03*
G04 #@! TD*
D30*
G04 #@! TO.C,U108*
X63305000Y-53565000D03*
X63305000Y-52615000D03*
X63305000Y-51665000D03*
X61030000Y-51665000D03*
X61030000Y-53565000D03*
G04 #@! TD*
D12*
G04 #@! TO.C,R110*
X37789996Y-22277496D03*
X36945004Y-21432504D03*
G04 #@! TD*
D18*
G04 #@! TO.C,G118*
X88367500Y-32159000D03*
D19*
X88367500Y-31155000D03*
G04 #@! TD*
D17*
G04 #@! TO.C,R117*
X72284586Y-52895455D03*
X73129578Y-52050463D03*
G04 #@! TD*
G04 #@! TO.C,R115*
X71612834Y-52223704D03*
X72457826Y-51378712D03*
G04 #@! TD*
D40*
G04 #@! TO.C,R125*
X60670000Y-50115000D03*
X61865000Y-50115000D03*
G04 #@! TD*
D17*
G04 #@! TO.C,R119*
X70941083Y-23091952D03*
X71786075Y-22246960D03*
G04 #@! TD*
D31*
G04 #@! TO.C,C128*
X62105000Y-27055000D03*
X63830000Y-27055000D03*
G04 #@! TD*
D13*
G04 #@! TO.C,ADD112*
X84767500Y-49115000D03*
X84767500Y-47815000D03*
G04 #@! TD*
D12*
G04 #@! TO.C,R114*
X35389996Y-24677496D03*
X34545004Y-23832504D03*
G04 #@! TD*
D18*
G04 #@! TO.C,E109*
X44267500Y-9259000D03*
D19*
X44267500Y-8255000D03*
G04 #@! TD*
D14*
G04 #@! TO.C,R120*
X77728124Y-54475624D03*
X77006876Y-53754376D03*
G04 #@! TD*
D22*
G04 #@! TO.C,C109*
X27706911Y-46654411D03*
X27028089Y-45975589D03*
G04 #@! TD*
D25*
G04 #@! TO.C,DOUT108*
X65821053Y-24808553D03*
X65113947Y-24101447D03*
G04 #@! TD*
D38*
G04 #@! TO.C,C115*
X24301123Y-51948623D03*
X22833877Y-50481377D03*
G04 #@! TD*
D13*
G04 #@! TO.C,ADD108*
X39167500Y-49115000D03*
X39167500Y-47815000D03*
G04 #@! TD*
D38*
G04 #@! TO.C,C115*
X24301123Y-23488623D03*
X22833877Y-22021377D03*
G04 #@! TD*
D18*
G04 #@! TO.C,G118*
X44367500Y-60619000D03*
D19*
X44367500Y-59615000D03*
G04 #@! TD*
D36*
G04 #@! TO.C,R121*
X76206876Y-26094376D03*
X76928124Y-26815624D03*
G04 #@! TD*
D15*
G04 #@! TO.C,R124*
X40077500Y-21955000D03*
X39057500Y-21955000D03*
G04 #@! TD*
D13*
G04 #@! TO.C,PU_EN108*
X29717500Y-27655000D03*
X31017500Y-27655000D03*
G04 #@! TD*
D21*
G04 #@! TO.C,C116*
X26906911Y-21315589D03*
X26228089Y-21994411D03*
G04 #@! TD*
D13*
G04 #@! TO.C,ADD108*
X83167500Y-49115000D03*
X83167500Y-47815000D03*
G04 #@! TD*
D40*
G04 #@! TO.C,R125*
X16670000Y-50115000D03*
X17865000Y-50115000D03*
G04 #@! TD*
D18*
G04 #@! TO.C,E109*
X88267500Y-37719000D03*
D19*
X88267500Y-36715000D03*
G04 #@! TD*
D18*
G04 #@! TO.C,G117*
X65667500Y-60019000D03*
D19*
X65667500Y-59015000D03*
G04 #@! TD*
D21*
G04 #@! TO.C,C116*
X26906911Y-49775589D03*
X26228089Y-50454411D03*
G04 #@! TD*
D13*
G04 #@! TO.C,PU_EN108*
X73717500Y-56115000D03*
X75017500Y-56115000D03*
G04 #@! TD*
D21*
G04 #@! TO.C,C116*
X70906911Y-21315589D03*
X70228089Y-21994411D03*
G04 #@! TD*
D17*
G04 #@! TO.C,R117*
X72284586Y-24435455D03*
X73129578Y-23590463D03*
G04 #@! TD*
D37*
G04 #@! TO.C,C118*
X47367500Y-13717500D03*
X47367500Y-11992500D03*
G04 #@! TD*
M02*
