M48
; DRILL file {KiCad 9.0.4} date 2025-08-20T18:17:53-0400
; FORMAT={-:-/ absolute / metric / decimal}
; #@! TF.CreationDate,2025-08-20T18:17:53-04:00
; #@! TF.GenerationSoftware,Kicad,Pcbnew,9.0.4
; #@! TF.FileFunction,Plated,1,4,PTH
FMAT,2
METRIC
; #@! TA.AperFunction,Plated,PTH,ViaDrill
T1C0.200
; #@! TA.AperFunction,Plated,PTH,ComponentDrill
T2C0.200
; #@! TA.AperFunction,Plated,PTH,ViaDrill
T3C0.400
; #@! TA.AperFunction,Plated,PTH,ComponentDrill
T4C1.000
; #@! TA.AperFunction,Plated,PTH,ComponentDrill
T5C2.200
%
G90
G05
T1
X7.768Y-25.455
X7.768Y-53.915
X12.93Y-26.842
X12.93Y-55.302
X13.967Y-32.655
X13.967Y-61.115
X14.417Y-21.055
X14.417Y-49.515
X15.167Y-23.855
X15.167Y-52.315
X15.367Y-32.655
X15.367Y-61.115
X15.531Y-27.334
X15.531Y-55.794
X16.567Y-7.455
X16.567Y-10.055
X16.567Y-35.915
X16.567Y-38.515
X16.767Y-14.855
X16.767Y-43.315
X16.967Y-25.055
X16.967Y-53.515
X18.067Y-27.055
X18.067Y-55.515
X18.367Y-12.255
X18.367Y-40.715
X20.168Y-19.055
X20.168Y-47.515
X21.174Y-28.635
X21.174Y-57.095
X21.567Y-32.855
X21.567Y-61.315
X24.102Y-28.755
X24.102Y-57.215
X25.392Y-16.818
X25.392Y-45.278
X26.168Y-18.655
X26.168Y-27.155
X26.168Y-47.115
X26.168Y-55.615
X29.471Y-27.849
X29.471Y-56.309
X29.921Y-13.705
X29.921Y-42.165
X31.029Y-27.804
X31.029Y-56.264
X32.872Y-27.281
X32.872Y-55.741
X33.367Y-13.255
X33.367Y-41.715
X34.367Y-25.055
X34.367Y-27.455
X34.367Y-53.515
X34.367Y-55.915
X37.767Y-24.455
X37.767Y-52.915
X37.968Y-20.255
X37.968Y-48.715
X39.367Y-26.655
X39.367Y-55.115
X41.567Y-23.655
X41.567Y-52.115
X44.317Y-13.705
X44.317Y-42.165
X46.076Y-27.564
X46.076Y-56.024
X46.968Y-28.055
X46.968Y-56.515
X48.367Y-11.055
X48.367Y-39.515
X48.567Y-22.655
X48.567Y-51.115
X51.767Y-25.455
X51.767Y-53.915
X56.93Y-26.842
X56.93Y-55.302
X57.967Y-32.655
X57.967Y-61.115
X58.417Y-21.055
X58.417Y-49.515
X59.167Y-23.855
X59.167Y-52.315
X59.367Y-32.655
X59.367Y-61.115
X59.531Y-27.334
X59.531Y-55.794
X60.567Y-7.455
X60.567Y-10.055
X60.567Y-35.915
X60.567Y-38.515
X60.767Y-14.855
X60.767Y-43.315
X60.967Y-25.055
X60.967Y-53.515
X62.067Y-27.055
X62.067Y-55.515
X62.367Y-12.255
X62.367Y-40.715
X64.168Y-19.055
X64.168Y-47.515
X65.174Y-28.635
X65.174Y-57.095
X65.567Y-32.855
X65.567Y-61.315
X68.102Y-28.755
X68.102Y-57.215
X69.392Y-16.818
X69.392Y-45.278
X70.167Y-18.655
X70.167Y-27.155
X70.167Y-47.115
X70.167Y-55.615
X73.471Y-27.849
X73.471Y-56.309
X73.921Y-13.705
X73.921Y-42.165
X75.029Y-27.804
X75.029Y-56.264
X76.872Y-27.281
X76.872Y-55.741
X77.367Y-13.255
X77.367Y-41.715
X78.367Y-25.055
X78.367Y-27.455
X78.367Y-53.515
X78.367Y-55.915
X81.767Y-24.455
X81.767Y-52.915
X81.968Y-20.255
X81.968Y-48.715
X83.367Y-26.655
X83.367Y-55.115
X85.567Y-23.655
X85.567Y-52.115
X88.317Y-13.705
X88.317Y-42.165
X90.076Y-27.564
X90.076Y-56.024
X90.968Y-28.055
X90.968Y-56.515
X92.367Y-11.055
X92.367Y-39.515
X92.567Y-22.655
X92.567Y-51.115
T2
X14.167Y-15.555
X14.167Y-27.255
X14.167Y-44.015
X14.167Y-55.715
X18.168Y-16.555
X18.168Y-45.015
X21.367Y-26.255
X21.367Y-54.715
X22.467Y-16.48
X22.467Y-44.94
X24.367Y-27.455
X24.367Y-55.915
X26.367Y-16.255
X26.367Y-44.715
X27.168Y-28.855
X27.168Y-57.315
X31.442Y-19.946
X31.442Y-20.935
X31.442Y-48.406
X31.442Y-49.395
X31.937Y-20.441
X31.937Y-48.901
X32.432Y-19.946
X32.432Y-20.935
X32.432Y-48.406
X32.432Y-49.395
X36.367Y-16.48
X36.367Y-44.94
X37.968Y-23.555
X37.968Y-52.015
X39.267Y-23.055
X39.267Y-51.515
X39.968Y-16.418
X39.968Y-44.877
X40.567Y-23.055
X40.567Y-51.515
X43.567Y-16.49
X43.567Y-44.95
X45.167Y-24.655
X45.167Y-53.115
X47.167Y-16.537
X47.167Y-44.997
X48.067Y-19.255
X48.067Y-47.715
X58.167Y-15.555
X58.167Y-27.255
X58.167Y-44.015
X58.167Y-55.715
X62.167Y-16.555
X62.167Y-45.015
X65.367Y-26.255
X65.367Y-54.715
X66.468Y-16.48
X66.468Y-44.94
X68.367Y-27.455
X68.367Y-55.915
X70.367Y-16.255
X70.367Y-44.715
X71.167Y-28.855
X71.167Y-57.315
X75.442Y-19.946
X75.442Y-20.935
X75.442Y-48.406
X75.442Y-49.395
X75.937Y-20.441
X75.937Y-48.901
X76.432Y-19.946
X76.432Y-20.935
X76.432Y-48.406
X76.432Y-49.395
X80.367Y-16.48
X80.367Y-44.94
X81.968Y-23.555
X81.968Y-52.015
X83.267Y-23.055
X83.267Y-51.515
X83.968Y-16.418
X83.968Y-44.877
X84.567Y-23.055
X84.567Y-51.515
X87.567Y-16.49
X87.567Y-44.95
X89.167Y-24.655
X89.167Y-53.115
X91.167Y-16.537
X91.167Y-44.997
X92.067Y-19.255
X92.067Y-47.715
T3
X16.482Y-28.715
X16.482Y-57.175
X31.367Y-16.08
X31.367Y-44.54
X60.482Y-28.715
X60.482Y-57.175
X75.367Y-16.08
X75.367Y-44.54
T4
X8.965Y-8.795
X8.965Y-11.335
X8.965Y-13.875
X8.965Y-16.415
X8.965Y-18.955
X8.965Y-21.495
X8.965Y-24.035
X8.965Y-26.575
X8.965Y-29.115
X8.965Y-31.655
X8.965Y-37.255
X8.965Y-39.795
X8.965Y-42.335
X8.965Y-44.875
X8.965Y-47.415
X8.965Y-49.955
X8.965Y-52.495
X8.965Y-55.035
X8.965Y-57.575
X8.965Y-60.115
X11.505Y-8.795
X11.505Y-11.335
X11.505Y-13.875
X11.505Y-16.415
X11.505Y-18.955
X11.505Y-21.495
X11.505Y-24.035
X11.505Y-26.575
X11.505Y-29.115
X11.505Y-31.655
X11.505Y-37.255
X11.505Y-39.795
X11.505Y-42.335
X11.505Y-44.875
X11.505Y-47.415
X11.505Y-49.955
X11.505Y-52.495
X11.505Y-55.035
X11.505Y-57.575
X11.505Y-60.115
X24.215Y-8.8
X24.215Y-11.34
X24.215Y-31.66
X24.215Y-37.26
X24.215Y-39.8
X24.215Y-60.12
X26.755Y-8.8
X26.755Y-11.34
X26.755Y-31.66
X26.755Y-37.26
X26.755Y-39.8
X26.755Y-60.12
X29.295Y-8.8
X29.295Y-11.34
X29.295Y-31.66
X29.295Y-37.26
X29.295Y-39.8
X29.295Y-60.12
X31.835Y-8.8
X31.835Y-11.34
X31.835Y-31.66
X31.835Y-37.26
X31.835Y-39.8
X31.835Y-60.12
X34.375Y-8.8
X34.375Y-11.34
X34.375Y-31.66
X34.375Y-37.26
X34.375Y-39.8
X34.375Y-60.12
X36.915Y-8.8
X36.915Y-11.34
X36.915Y-31.66
X36.915Y-37.26
X36.915Y-39.8
X36.915Y-60.12
X39.455Y-8.8
X39.455Y-11.34
X39.455Y-31.66
X39.455Y-37.26
X39.455Y-39.8
X39.455Y-60.12
X41.995Y-8.8
X41.995Y-11.34
X41.995Y-31.66
X41.995Y-37.26
X41.995Y-39.8
X41.995Y-60.12
X44.52Y-11.34
X44.52Y-39.8
X47.06Y-21.5
X47.06Y-24.04
X47.06Y-26.58
X47.06Y-49.96
X47.06Y-52.5
X47.06Y-55.04
X52.965Y-8.795
X52.965Y-11.335
X52.965Y-13.875
X52.965Y-16.415
X52.965Y-18.955
X52.965Y-21.495
X52.965Y-24.035
X52.965Y-26.575
X52.965Y-29.115
X52.965Y-31.655
X52.965Y-37.255
X52.965Y-39.795
X52.965Y-42.335
X52.965Y-44.875
X52.965Y-47.415
X52.965Y-49.955
X52.965Y-52.495
X52.965Y-55.035
X52.965Y-57.575
X52.965Y-60.115
X55.505Y-8.795
X55.505Y-11.335
X55.505Y-13.875
X55.505Y-16.415
X55.505Y-18.955
X55.505Y-21.495
X55.505Y-24.035
X55.505Y-26.575
X55.505Y-29.115
X55.505Y-31.655
X55.505Y-37.255
X55.505Y-39.795
X55.505Y-42.335
X55.505Y-44.875
X55.505Y-47.415
X55.505Y-49.955
X55.505Y-52.495
X55.505Y-55.035
X55.505Y-57.575
X55.505Y-60.115
X68.215Y-8.8
X68.215Y-11.34
X68.215Y-31.66
X68.215Y-37.26
X68.215Y-39.8
X68.215Y-60.12
X70.755Y-8.8
X70.755Y-11.34
X70.755Y-31.66
X70.755Y-37.26
X70.755Y-39.8
X70.755Y-60.12
X73.295Y-8.8
X73.295Y-11.34
X73.295Y-31.66
X73.295Y-37.26
X73.295Y-39.8
X73.295Y-60.12
X75.835Y-8.8
X75.835Y-11.34
X75.835Y-31.66
X75.835Y-37.26
X75.835Y-39.8
X75.835Y-60.12
X78.375Y-8.8
X78.375Y-11.34
X78.375Y-31.66
X78.375Y-37.26
X78.375Y-39.8
X78.375Y-60.12
X80.915Y-8.8
X80.915Y-11.34
X80.915Y-31.66
X80.915Y-37.26
X80.915Y-39.8
X80.915Y-60.12
X83.455Y-8.8
X83.455Y-11.34
X83.455Y-31.66
X83.455Y-37.26
X83.455Y-39.8
X83.455Y-60.12
X85.995Y-8.8
X85.995Y-11.34
X85.995Y-31.66
X85.995Y-37.26
X85.995Y-39.8
X85.995Y-60.12
X88.52Y-11.34
X88.52Y-39.8
X91.06Y-21.5
X91.06Y-24.04
X91.06Y-26.58
X91.06Y-49.96
X91.06Y-52.5
X91.06Y-55.04
T5
X19.12Y-8.8
X19.12Y-31.66
X19.12Y-37.26
X19.12Y-60.12
X47.06Y-8.8
X47.06Y-31.66
X47.06Y-37.26
X47.06Y-60.12
X63.12Y-8.8
X63.12Y-31.66
X63.12Y-37.26
X63.12Y-60.12
X91.06Y-8.8
X91.06Y-31.66
X91.06Y-37.26
X91.06Y-60.12
M30
