G04 #@! TF.GenerationSoftware,KiCad,Pcbnew,9.0.4*
G04 #@! TF.CreationDate,2025-08-20T18:17:53-04:00*
G04 #@! TF.ProjectId,jlc_pcba,6a6c635f-7063-4626-912e-6b696361645f,rev?*
G04 #@! TF.SameCoordinates,Original*
G04 #@! TF.FileFunction,Paste,Top*
G04 #@! TF.FilePolarity,Positive*
%FSLAX46Y46*%
G04 Gerber Fmt 4.6, Leading zero omitted, Abs format (unit mm)*
G04 Created by KiCad (PCBNEW 9.0.4) date 2025-08-20 18:17:53*
%MOMM*%
%LPD*%
G01*
G04 APERTURE LIST*
G04 Aperture macros list*
%AMRoundRect*
0 Rectangle with rounded corners*
0 $1 Rounding radius*
0 $2 $3 $4 $5 $6 $7 $8 $9 X,Y pos of 4 corners*
0 Add a 4 corners polygon primitive as box body*
4,1,4,$2,$3,$4,$5,$6,$7,$8,$9,$2,$3,0*
0 Add four circle primitives for the rounded corners*
1,1,$1+$1,$2,$3*
1,1,$1+$1,$4,$5*
1,1,$1+$1,$6,$7*
1,1,$1+$1,$8,$9*
0 Add four rect primitives between the rounded corners*
20,1,$1+$1,$2,$3,$4,$5,0*
20,1,$1+$1,$4,$5,$6,$7,0*
20,1,$1+$1,$6,$7,$8,$9,0*
20,1,$1+$1,$8,$9,$2,$3,0*%
%AMFreePoly0*
4,1,25,0.251037,0.433748,0.282717,0.409439,0.409439,0.282717,0.449030,0.214145,0.454242,0.174554,0.454242,-0.174554,0.433748,-0.251037,0.409439,-0.282717,0.282717,-0.409439,0.214145,-0.449030,0.174554,-0.454242,-0.174554,-0.454242,-0.251037,-0.433748,-0.282717,-0.409439,-0.409439,-0.282717,-0.449030,-0.214145,-0.454242,-0.174554,-0.454242,0.174554,-0.433748,0.251037,-0.409439,0.282717,
-0.282717,0.409439,-0.214145,0.449030,-0.174554,0.454242,0.174554,0.454242,0.251037,0.433748,0.251037,0.433748,$1*%
G04 Aperture macros list end*
%ADD10RoundRect,0.160000X-0.252791X0.026517X0.026517X-0.252791X0.252791X-0.026517X-0.026517X0.252791X0*%
%ADD11RoundRect,0.135000X0.226274X0.035355X0.035355X0.226274X-0.226274X-0.035355X-0.035355X-0.226274X0*%
%ADD12RoundRect,0.135000X0.135000X0.185000X-0.135000X0.185000X-0.135000X-0.185000X0.135000X-0.185000X0*%
%ADD13RoundRect,0.237500X-0.044194X-0.380070X0.380070X0.044194X0.044194X0.380070X-0.380070X-0.044194X0*%
%ADD14RoundRect,0.160000X0.026517X0.252791X-0.252791X-0.026517X-0.026517X-0.252791X0.252791X0.026517X0*%
%ADD15RoundRect,0.135000X-0.135000X-0.185000X0.135000X-0.185000X0.135000X0.185000X-0.135000X0.185000X0*%
%ADD16RoundRect,0.140000X-0.021213X0.219203X-0.219203X0.021213X0.021213X-0.219203X0.219203X-0.021213X0*%
%ADD17RoundRect,0.140000X0.219203X0.021213X0.021213X0.219203X-0.219203X-0.021213X-0.021213X-0.219203X0*%
%ADD18RoundRect,0.135000X-0.185000X0.135000X-0.185000X-0.135000X0.185000X-0.135000X0.185000X0.135000X0*%
%ADD19RoundRect,0.250000X-0.450000X0.325000X-0.450000X-0.325000X0.450000X-0.325000X0.450000X0.325000X0*%
%ADD20FreePoly0,45.000000*%
%ADD21RoundRect,0.062500X-0.185616X-0.274004X0.274004X0.185616X0.185616X0.274004X-0.274004X-0.185616X0*%
%ADD22RoundRect,0.062500X0.185616X-0.274004X0.274004X-0.185616X-0.185616X0.274004X-0.274004X0.185616X0*%
%ADD23RoundRect,0.062500X0.000000X-0.088388X0.088388X0.000000X0.000000X0.088388X-0.088388X0.000000X0*%
%ADD24RoundRect,0.150000X0.512500X0.150000X-0.512500X0.150000X-0.512500X-0.150000X0.512500X-0.150000X0*%
%ADD25RoundRect,0.237500X-0.300000X-0.237500X0.300000X-0.237500X0.300000X0.237500X-0.300000X0.237500X0*%
%ADD26RoundRect,0.250000X-0.097227X0.574524X-0.574524X0.097227X0.097227X-0.574524X0.574524X-0.097227X0*%
%ADD27RoundRect,0.135000X-0.226274X-0.035355X-0.035355X-0.226274X0.226274X0.035355X0.035355X0.226274X0*%
%ADD28RoundRect,0.237500X0.237500X-0.300000X0.237500X0.300000X-0.237500X0.300000X-0.237500X-0.300000X0*%
%ADD29RoundRect,0.250000X0.574524X0.097227X0.097227X0.574524X-0.574524X-0.097227X-0.097227X-0.574524X0*%
%ADD30RoundRect,0.250000X0.337500X0.475000X-0.337500X0.475000X-0.337500X-0.475000X0.337500X-0.475000X0*%
%ADD31RoundRect,0.160000X0.197500X0.160000X-0.197500X0.160000X-0.197500X-0.160000X0.197500X-0.160000X0*%
G04 APERTURE END LIST*
D10*
G04 #@! TO.C,R112*
X36989996Y-51537496D03*
X36145004Y-50692504D03*
G04 #@! TD*
D11*
G04 #@! TO.C,R120*
X77728124Y-26015624D03*
X77006876Y-25294376D03*
G04 #@! TD*
D12*
G04 #@! TO.C,R122*
X42277500Y-21955000D03*
X41257500Y-21955000D03*
G04 #@! TD*
G04 #@! TO.C,R122*
X86277500Y-21955000D03*
X85257500Y-21955000D03*
G04 #@! TD*
D13*
G04 #@! TO.C,C119*
X24757620Y-21064880D03*
X25977380Y-19845120D03*
G04 #@! TD*
D10*
G04 #@! TO.C,R113*
X36189996Y-23877496D03*
X35345004Y-23032504D03*
G04 #@! TD*
D14*
G04 #@! TO.C,R115*
X27612834Y-52223704D03*
X28457826Y-51378712D03*
G04 #@! TD*
G04 #@! TO.C,R115*
X27612834Y-23763704D03*
X28457826Y-22918712D03*
G04 #@! TD*
D15*
G04 #@! TO.C,R123*
X87257500Y-50415000D03*
X88277500Y-50415000D03*
G04 #@! TD*
D12*
G04 #@! TO.C,R124*
X84077500Y-50415000D03*
X83057500Y-50415000D03*
G04 #@! TD*
D16*
G04 #@! TO.C,C112*
X74706911Y-25315589D03*
X74028089Y-25994411D03*
G04 #@! TD*
D17*
G04 #@! TO.C,C109*
X71706911Y-18194411D03*
X71028089Y-17515589D03*
G04 #@! TD*
D14*
G04 #@! TO.C,R118*
X28956337Y-53567207D03*
X29801329Y-52722215D03*
G04 #@! TD*
D12*
G04 #@! TO.C,R124*
X84077500Y-21955000D03*
X83057500Y-21955000D03*
G04 #@! TD*
D18*
G04 #@! TO.C,R126*
X88367500Y-53905000D03*
X88367500Y-54925000D03*
G04 #@! TD*
D14*
G04 #@! TO.C,R119*
X26941083Y-23091952D03*
X27786075Y-22246960D03*
G04 #@! TD*
D16*
G04 #@! TO.C,C112*
X30706911Y-25315589D03*
X30028089Y-25994411D03*
G04 #@! TD*
D10*
G04 #@! TO.C,R110*
X81789996Y-50737496D03*
X80945004Y-49892504D03*
G04 #@! TD*
D19*
G04 #@! TO.C,D116*
X42342500Y-25305000D03*
X42342500Y-27355000D03*
G04 #@! TD*
D18*
G04 #@! TO.C,R126*
X88367500Y-25445000D03*
X88367500Y-26465000D03*
G04 #@! TD*
D20*
G04 #@! TO.C,TAC5212*
X75247104Y-20440514D03*
X75936533Y-21129943D03*
X75936533Y-19751085D03*
X76625962Y-20440514D03*
D21*
X73647275Y-20962005D03*
X74000828Y-21315559D03*
X74354382Y-21669112D03*
X74707935Y-22022665D03*
X75061488Y-22376219D03*
X75415042Y-22729772D03*
D22*
X76458024Y-22729772D03*
X76811578Y-22376219D03*
X77165131Y-22022665D03*
X77518684Y-21669112D03*
X77872238Y-21315559D03*
X78225791Y-20962005D03*
D21*
X78225791Y-19919023D03*
X77872238Y-19565469D03*
X77518684Y-19211916D03*
X77165131Y-18858363D03*
X76811578Y-18504809D03*
X76458024Y-18151256D03*
D22*
X75415042Y-18151256D03*
X75061488Y-18504809D03*
X74707935Y-18858363D03*
X74354382Y-19211916D03*
X74000828Y-19565469D03*
X73647275Y-19919023D03*
D23*
X73504086Y-20440514D03*
X75936533Y-22872961D03*
X78368980Y-20440514D03*
X75936533Y-18008067D03*
G04 #@! TD*
D16*
G04 #@! TO.C,C116*
X70906911Y-49775589D03*
X70228089Y-50454411D03*
G04 #@! TD*
D12*
G04 #@! TO.C,R122*
X42277500Y-50415000D03*
X41257500Y-50415000D03*
G04 #@! TD*
D10*
G04 #@! TO.C,R113*
X36189996Y-52337496D03*
X35345004Y-51492504D03*
G04 #@! TD*
D15*
G04 #@! TO.C,R123*
X43257500Y-21955000D03*
X44277500Y-21955000D03*
G04 #@! TD*
D10*
G04 #@! TO.C,R112*
X80989996Y-51537496D03*
X80145004Y-50692504D03*
G04 #@! TD*
D24*
G04 #@! TO.C,U108*
X19305000Y-53565000D03*
X19305000Y-52615000D03*
X19305000Y-51665000D03*
X17030000Y-51665000D03*
X17030000Y-53565000D03*
G04 #@! TD*
D25*
G04 #@! TO.C,C128*
X18105000Y-27055000D03*
X19830000Y-27055000D03*
G04 #@! TD*
D12*
G04 #@! TO.C,R124*
X40077500Y-50415000D03*
X39057500Y-50415000D03*
G04 #@! TD*
D26*
G04 #@! TO.C,C108*
X24901123Y-46681377D03*
X23433877Y-48148623D03*
G04 #@! TD*
D27*
G04 #@! TO.C,R121*
X32206876Y-26094376D03*
X32928124Y-26815624D03*
G04 #@! TD*
D10*
G04 #@! TO.C,R114*
X35389996Y-53137496D03*
X34545004Y-52292504D03*
G04 #@! TD*
D14*
G04 #@! TO.C,R117*
X28284586Y-52895455D03*
X29129578Y-52050463D03*
G04 #@! TD*
D28*
G04 #@! TO.C,C118*
X91367500Y-42177500D03*
X91367500Y-40452500D03*
G04 #@! TD*
D16*
G04 #@! TO.C,C112*
X30706911Y-53775589D03*
X30028089Y-54454411D03*
G04 #@! TD*
D10*
G04 #@! TO.C,R110*
X81789996Y-22277496D03*
X80945004Y-21432504D03*
G04 #@! TD*
G04 #@! TO.C,R114*
X79389996Y-24677496D03*
X78545004Y-23832504D03*
G04 #@! TD*
D25*
G04 #@! TO.C,C128*
X18105000Y-55515000D03*
X19830000Y-55515000D03*
G04 #@! TD*
D20*
G04 #@! TO.C,TAC5212*
X31247104Y-48900514D03*
X31936533Y-49589943D03*
X31936533Y-48211085D03*
X32625962Y-48900514D03*
D21*
X29647275Y-49422005D03*
X30000828Y-49775559D03*
X30354382Y-50129112D03*
X30707935Y-50482665D03*
X31061488Y-50836219D03*
X31415042Y-51189772D03*
D22*
X32458024Y-51189772D03*
X32811578Y-50836219D03*
X33165131Y-50482665D03*
X33518684Y-50129112D03*
X33872238Y-49775559D03*
X34225791Y-49422005D03*
D21*
X34225791Y-48379023D03*
X33872238Y-48025469D03*
X33518684Y-47671916D03*
X33165131Y-47318363D03*
X32811578Y-46964809D03*
X32458024Y-46611256D03*
D22*
X31415042Y-46611256D03*
X31061488Y-46964809D03*
X30707935Y-47318363D03*
X30354382Y-47671916D03*
X30000828Y-48025469D03*
X29647275Y-48379023D03*
D23*
X29504086Y-48900514D03*
X31936533Y-51332961D03*
X34368980Y-48900514D03*
X31936533Y-46468067D03*
G04 #@! TD*
D19*
G04 #@! TO.C,D116*
X42342500Y-53765000D03*
X42342500Y-55815000D03*
G04 #@! TD*
D29*
G04 #@! TO.C,C115*
X68301123Y-23488623D03*
X66833877Y-22021377D03*
G04 #@! TD*
D14*
G04 #@! TO.C,R118*
X72956337Y-25107207D03*
X73801329Y-24262215D03*
G04 #@! TD*
D30*
G04 #@! TO.C,C111*
X28205000Y-27255000D03*
X26130000Y-27255000D03*
G04 #@! TD*
D14*
G04 #@! TO.C,R119*
X26941083Y-51551952D03*
X27786075Y-50706960D03*
G04 #@! TD*
G04 #@! TO.C,R115*
X71612834Y-23763704D03*
X72457826Y-22918712D03*
G04 #@! TD*
D30*
G04 #@! TO.C,C111*
X72205000Y-27255000D03*
X70130000Y-27255000D03*
G04 #@! TD*
D26*
G04 #@! TO.C,C108*
X68901123Y-46681377D03*
X67433877Y-48148623D03*
G04 #@! TD*
G04 #@! TO.C,C108*
X68901123Y-18221377D03*
X67433877Y-19688623D03*
G04 #@! TD*
D17*
G04 #@! TO.C,C109*
X27706911Y-18194411D03*
X27028089Y-17515589D03*
G04 #@! TD*
D20*
G04 #@! TO.C,TAC5212*
X31247104Y-20440514D03*
X31936533Y-21129943D03*
X31936533Y-19751085D03*
X32625962Y-20440514D03*
D21*
X29647275Y-20962005D03*
X30000828Y-21315559D03*
X30354382Y-21669112D03*
X30707935Y-22022665D03*
X31061488Y-22376219D03*
X31415042Y-22729772D03*
D22*
X32458024Y-22729772D03*
X32811578Y-22376219D03*
X33165131Y-22022665D03*
X33518684Y-21669112D03*
X33872238Y-21315559D03*
X34225791Y-20962005D03*
D21*
X34225791Y-19919023D03*
X33872238Y-19565469D03*
X33518684Y-19211916D03*
X33165131Y-18858363D03*
X32811578Y-18504809D03*
X32458024Y-18151256D03*
D22*
X31415042Y-18151256D03*
X31061488Y-18504809D03*
X30707935Y-18858363D03*
X30354382Y-19211916D03*
X30000828Y-19565469D03*
X29647275Y-19919023D03*
D23*
X29504086Y-20440514D03*
X31936533Y-22872961D03*
X34368980Y-20440514D03*
X31936533Y-18008067D03*
G04 #@! TD*
D14*
G04 #@! TO.C,R119*
X70941083Y-51551952D03*
X71786075Y-50706960D03*
G04 #@! TD*
D24*
G04 #@! TO.C,U108*
X63305000Y-25105000D03*
X63305000Y-24155000D03*
X63305000Y-23205000D03*
X61030000Y-23205000D03*
X61030000Y-25105000D03*
G04 #@! TD*
D13*
G04 #@! TO.C,C119*
X68757620Y-21064880D03*
X69977380Y-19845120D03*
G04 #@! TD*
D28*
G04 #@! TO.C,C118*
X91367500Y-13717500D03*
X91367500Y-11992500D03*
G04 #@! TD*
D18*
G04 #@! TO.C,R126*
X44367500Y-53905000D03*
X44367500Y-54925000D03*
G04 #@! TD*
D31*
G04 #@! TO.C,R125*
X16670000Y-21655000D03*
X17865000Y-21655000D03*
G04 #@! TD*
D19*
G04 #@! TO.C,D116*
X86342500Y-25305000D03*
X86342500Y-27355000D03*
G04 #@! TD*
D12*
G04 #@! TO.C,R122*
X86277500Y-50415000D03*
X85257500Y-50415000D03*
G04 #@! TD*
D13*
G04 #@! TO.C,C119*
X24757620Y-49524880D03*
X25977380Y-48305120D03*
G04 #@! TD*
D30*
G04 #@! TO.C,C111*
X72205000Y-55715000D03*
X70130000Y-55715000D03*
G04 #@! TD*
D15*
G04 #@! TO.C,R123*
X43257500Y-50415000D03*
X44277500Y-50415000D03*
G04 #@! TD*
D17*
G04 #@! TO.C,C109*
X71706911Y-46654411D03*
X71028089Y-45975589D03*
G04 #@! TD*
D19*
G04 #@! TO.C,D116*
X86342500Y-53765000D03*
X86342500Y-55815000D03*
G04 #@! TD*
D10*
G04 #@! TO.C,R112*
X36989996Y-23077496D03*
X36145004Y-22232504D03*
G04 #@! TD*
D13*
G04 #@! TO.C,C119*
X68757620Y-49524880D03*
X69977380Y-48305120D03*
G04 #@! TD*
D10*
G04 #@! TO.C,R112*
X80989996Y-23077496D03*
X80145004Y-22232504D03*
G04 #@! TD*
D11*
G04 #@! TO.C,R120*
X33728124Y-26015624D03*
X33006876Y-25294376D03*
G04 #@! TD*
G04 #@! TO.C,R120*
X33728124Y-54475624D03*
X33006876Y-53754376D03*
G04 #@! TD*
D28*
G04 #@! TO.C,C118*
X47367500Y-42177500D03*
X47367500Y-40452500D03*
G04 #@! TD*
D14*
G04 #@! TO.C,R118*
X28956337Y-25107207D03*
X29801329Y-24262215D03*
G04 #@! TD*
D27*
G04 #@! TO.C,R121*
X32206876Y-54554376D03*
X32928124Y-55275624D03*
G04 #@! TD*
D14*
G04 #@! TO.C,R117*
X28284586Y-24435455D03*
X29129578Y-23590463D03*
G04 #@! TD*
D10*
G04 #@! TO.C,R113*
X80189996Y-52337496D03*
X79345004Y-51492504D03*
G04 #@! TD*
G04 #@! TO.C,R110*
X37789996Y-50737496D03*
X36945004Y-49892504D03*
G04 #@! TD*
D14*
G04 #@! TO.C,R118*
X72956337Y-53567207D03*
X73801329Y-52722215D03*
G04 #@! TD*
D15*
G04 #@! TO.C,R123*
X87257500Y-21955000D03*
X88277500Y-21955000D03*
G04 #@! TD*
D18*
G04 #@! TO.C,R126*
X44367500Y-25445000D03*
X44367500Y-26465000D03*
G04 #@! TD*
D27*
G04 #@! TO.C,R121*
X76206876Y-54554376D03*
X76928124Y-55275624D03*
G04 #@! TD*
D24*
G04 #@! TO.C,U108*
X19305000Y-25105000D03*
X19305000Y-24155000D03*
X19305000Y-23205000D03*
X17030000Y-23205000D03*
X17030000Y-25105000D03*
G04 #@! TD*
D16*
G04 #@! TO.C,C112*
X74706911Y-53775589D03*
X74028089Y-54454411D03*
G04 #@! TD*
D10*
G04 #@! TO.C,R113*
X80189996Y-23877496D03*
X79345004Y-23032504D03*
G04 #@! TD*
D25*
G04 #@! TO.C,C128*
X62105000Y-55515000D03*
X63830000Y-55515000D03*
G04 #@! TD*
D10*
G04 #@! TO.C,R114*
X79389996Y-53137496D03*
X78545004Y-52292504D03*
G04 #@! TD*
D29*
G04 #@! TO.C,C115*
X68301123Y-51948623D03*
X66833877Y-50481377D03*
G04 #@! TD*
D26*
G04 #@! TO.C,C108*
X24901123Y-18221377D03*
X23433877Y-19688623D03*
G04 #@! TD*
D30*
G04 #@! TO.C,C111*
X28205000Y-55715000D03*
X26130000Y-55715000D03*
G04 #@! TD*
D20*
G04 #@! TO.C,TAC5212*
X75247104Y-48900514D03*
X75936533Y-49589943D03*
X75936533Y-48211085D03*
X76625962Y-48900514D03*
D21*
X73647275Y-49422005D03*
X74000828Y-49775559D03*
X74354382Y-50129112D03*
X74707935Y-50482665D03*
X75061488Y-50836219D03*
X75415042Y-51189772D03*
D22*
X76458024Y-51189772D03*
X76811578Y-50836219D03*
X77165131Y-50482665D03*
X77518684Y-50129112D03*
X77872238Y-49775559D03*
X78225791Y-49422005D03*
D21*
X78225791Y-48379023D03*
X77872238Y-48025469D03*
X77518684Y-47671916D03*
X77165131Y-47318363D03*
X76811578Y-46964809D03*
X76458024Y-46611256D03*
D22*
X75415042Y-46611256D03*
X75061488Y-46964809D03*
X74707935Y-47318363D03*
X74354382Y-47671916D03*
X74000828Y-48025469D03*
X73647275Y-48379023D03*
D23*
X73504086Y-48900514D03*
X75936533Y-51332961D03*
X78368980Y-48900514D03*
X75936533Y-46468067D03*
G04 #@! TD*
D31*
G04 #@! TO.C,R125*
X60670000Y-21655000D03*
X61865000Y-21655000D03*
G04 #@! TD*
D24*
G04 #@! TO.C,U108*
X63305000Y-53565000D03*
X63305000Y-52615000D03*
X63305000Y-51665000D03*
X61030000Y-51665000D03*
X61030000Y-53565000D03*
G04 #@! TD*
D10*
G04 #@! TO.C,R110*
X37789996Y-22277496D03*
X36945004Y-21432504D03*
G04 #@! TD*
D14*
G04 #@! TO.C,R117*
X72284586Y-52895455D03*
X73129578Y-52050463D03*
G04 #@! TD*
G04 #@! TO.C,R115*
X71612834Y-52223704D03*
X72457826Y-51378712D03*
G04 #@! TD*
D31*
G04 #@! TO.C,R125*
X60670000Y-50115000D03*
X61865000Y-50115000D03*
G04 #@! TD*
D14*
G04 #@! TO.C,R119*
X70941083Y-23091952D03*
X71786075Y-22246960D03*
G04 #@! TD*
D25*
G04 #@! TO.C,C128*
X62105000Y-27055000D03*
X63830000Y-27055000D03*
G04 #@! TD*
D10*
G04 #@! TO.C,R114*
X35389996Y-24677496D03*
X34545004Y-23832504D03*
G04 #@! TD*
D11*
G04 #@! TO.C,R120*
X77728124Y-54475624D03*
X77006876Y-53754376D03*
G04 #@! TD*
D17*
G04 #@! TO.C,C109*
X27706911Y-46654411D03*
X27028089Y-45975589D03*
G04 #@! TD*
D29*
G04 #@! TO.C,C115*
X24301123Y-51948623D03*
X22833877Y-50481377D03*
G04 #@! TD*
G04 #@! TO.C,C115*
X24301123Y-23488623D03*
X22833877Y-22021377D03*
G04 #@! TD*
D27*
G04 #@! TO.C,R121*
X76206876Y-26094376D03*
X76928124Y-26815624D03*
G04 #@! TD*
D12*
G04 #@! TO.C,R124*
X40077500Y-21955000D03*
X39057500Y-21955000D03*
G04 #@! TD*
D16*
G04 #@! TO.C,C116*
X26906911Y-21315589D03*
X26228089Y-21994411D03*
G04 #@! TD*
D31*
G04 #@! TO.C,R125*
X16670000Y-50115000D03*
X17865000Y-50115000D03*
G04 #@! TD*
D16*
G04 #@! TO.C,C116*
X26906911Y-49775589D03*
X26228089Y-50454411D03*
G04 #@! TD*
G04 #@! TO.C,C116*
X70906911Y-21315589D03*
X70228089Y-21994411D03*
G04 #@! TD*
D14*
G04 #@! TO.C,R117*
X72284586Y-24435455D03*
X73129578Y-23590463D03*
G04 #@! TD*
D28*
G04 #@! TO.C,C118*
X47367500Y-13717500D03*
X47367500Y-11992500D03*
G04 #@! TD*
M02*
