G04 #@! TF.GenerationSoftware,KiCad,Pcbnew,9.0.4*
G04 #@! TF.CreationDate,2025-08-20T18:17:53-04:00*
G04 #@! TF.ProjectId,jlc_pcba,6a6c635f-7063-4626-912e-6b696361645f,rev?*
G04 #@! TF.SameCoordinates,Original*
G04 #@! TF.FileFunction,Other,Comment*
%FSLAX46Y46*%
G04 Gerber Fmt 4.6, Leading zero omitted, Abs format (unit mm)*
G04 Created by KiCad (PCBNEW 9.0.4) date 2025-08-20 18:17:53*
%MOMM*%
%LPD*%
G01*
G04 APERTURE LIST*
%ADD10C,0.150000*%
G04 APERTURE END LIST*
D10*
G04 #@! TO.C,board_outline108*
X21020000Y-37260000D02*
G75*
G02*
X17220000Y-37260000I-1900000J0D01*
G01*
X17220000Y-37260000D02*
G75*
G02*
X21020000Y-37260000I1900000J0D01*
G01*
X21020000Y-60120000D02*
G75*
G02*
X17220000Y-60120000I-1900000J0D01*
G01*
X17220000Y-60120000D02*
G75*
G02*
X21020000Y-60120000I1900000J0D01*
G01*
X48960000Y-60120000D02*
G75*
G02*
X45160000Y-60120000I-1900000J0D01*
G01*
X45160000Y-60120000D02*
G75*
G02*
X48960000Y-60120000I1900000J0D01*
G01*
X21020000Y-8800000D02*
G75*
G02*
X17220000Y-8800000I-1900000J0D01*
G01*
X17220000Y-8800000D02*
G75*
G02*
X21020000Y-8800000I1900000J0D01*
G01*
X21020000Y-31660000D02*
G75*
G02*
X17220000Y-31660000I-1900000J0D01*
G01*
X17220000Y-31660000D02*
G75*
G02*
X21020000Y-31660000I1900000J0D01*
G01*
X48960000Y-31660000D02*
G75*
G02*
X45160000Y-31660000I-1900000J0D01*
G01*
X45160000Y-31660000D02*
G75*
G02*
X48960000Y-31660000I1900000J0D01*
G01*
X65020000Y-37260000D02*
G75*
G02*
X61220000Y-37260000I-1900000J0D01*
G01*
X61220000Y-37260000D02*
G75*
G02*
X65020000Y-37260000I1900000J0D01*
G01*
X65020000Y-60120000D02*
G75*
G02*
X61220000Y-60120000I-1900000J0D01*
G01*
X61220000Y-60120000D02*
G75*
G02*
X65020000Y-60120000I1900000J0D01*
G01*
X92960000Y-60120000D02*
G75*
G02*
X89160000Y-60120000I-1900000J0D01*
G01*
X89160000Y-60120000D02*
G75*
G02*
X92960000Y-60120000I1900000J0D01*
G01*
X65020000Y-8800000D02*
G75*
G02*
X61220000Y-8800000I-1900000J0D01*
G01*
X61220000Y-8800000D02*
G75*
G02*
X65020000Y-8800000I1900000J0D01*
G01*
X65020000Y-31660000D02*
G75*
G02*
X61220000Y-31660000I-1900000J0D01*
G01*
X61220000Y-31660000D02*
G75*
G02*
X65020000Y-31660000I1900000J0D01*
G01*
X92960000Y-31660000D02*
G75*
G02*
X89160000Y-31660000I-1900000J0D01*
G01*
X89160000Y-31660000D02*
G75*
G02*
X92960000Y-31660000I1900000J0D01*
G01*
G04 #@! TD*
M02*
