G04 #@! TF.GenerationSoftware,KiCad,Pcbnew,9.0.4*
G04 #@! TF.CreationDate,2025-08-20T18:17:53-04:00*
G04 #@! TF.ProjectId,jlc_pcba,6a6c635f-7063-4626-912e-6b696361645f,rev?*
G04 #@! TF.SameCoordinates,Original*
G04 #@! TF.FileFunction,Soldermask,Bot*
G04 #@! TF.FilePolarity,Negative*
%FSLAX46Y46*%
G04 Gerber Fmt 4.6, Leading zero omitted, Abs format (unit mm)*
G04 Created by KiCad (PCBNEW 9.0.4) date 2025-08-20 18:17:53*
%MOMM*%
%LPD*%
G01*
G04 APERTURE LIST*
G04 Aperture macros list*
%AMRoundRect*
0 Rectangle with rounded corners*
0 $1 Rounding radius*
0 $2 $3 $4 $5 $6 $7 $8 $9 X,Y pos of 4 corners*
0 Add a 4 corners polygon primitive as box body*
4,1,4,$2,$3,$4,$5,$6,$7,$8,$9,$2,$3,0*
0 Add four circle primitives for the rounded corners*
1,1,$1+$1,$2,$3*
1,1,$1+$1,$4,$5*
1,1,$1+$1,$6,$7*
1,1,$1+$1,$8,$9*
0 Add four rect primitives between the rounded corners*
20,1,$1+$1,$2,$3,$4,$5,0*
20,1,$1+$1,$4,$5,$6,$7,0*
20,1,$1+$1,$6,$7,$8,$9,0*
20,1,$1+$1,$8,$9,$2,$3,0*%
G04 Aperture macros list end*
%ADD10C,0.010000*%
%ADD11R,1.700000X1.700000*%
%ADD12O,1.700000X1.700000*%
%ADD13C,3.200000*%
%ADD14RoundRect,0.250000X-0.325000X-0.450000X0.325000X-0.450000X0.325000X0.450000X-0.325000X0.450000X0*%
%ADD15R,0.500000X0.500000*%
%ADD16R,0.500000X0.550000*%
%ADD17RoundRect,0.160000X0.222500X0.160000X-0.222500X0.160000X-0.222500X-0.160000X0.222500X-0.160000X0*%
%ADD18RoundRect,0.160000X0.197500X0.160000X-0.197500X0.160000X-0.197500X-0.160000X0.197500X-0.160000X0*%
%ADD19RoundRect,0.237500X-0.237500X0.300000X-0.237500X-0.300000X0.237500X-0.300000X0.237500X0.300000X0*%
%ADD20RoundRect,0.250000X-0.475000X0.337500X-0.475000X-0.337500X0.475000X-0.337500X0.475000X0.337500X0*%
%ADD21RoundRect,0.250001X0.924999X-0.499999X0.924999X0.499999X-0.924999X0.499999X-0.924999X-0.499999X0*%
%ADD22RoundRect,0.160000X-0.222500X-0.160000X0.222500X-0.160000X0.222500X0.160000X-0.222500X0.160000X0*%
%ADD23R,1.000000X1.500000*%
%ADD24RoundRect,0.237500X-0.287500X-0.237500X0.287500X-0.237500X0.287500X0.237500X-0.287500X0.237500X0*%
%ADD25RoundRect,0.237500X0.237500X-0.300000X0.237500X0.300000X-0.237500X0.300000X-0.237500X-0.300000X0*%
%ADD26RoundRect,0.237500X-0.237500X0.287500X-0.237500X-0.287500X0.237500X-0.287500X0.237500X0.287500X0*%
%ADD27RoundRect,0.150000X0.150000X-0.512500X0.150000X0.512500X-0.150000X0.512500X-0.150000X-0.512500X0*%
%ADD28R,0.508000X0.500000*%
%ADD29R,0.508000X0.508000*%
%ADD30RoundRect,0.250000X0.325000X0.450000X-0.325000X0.450000X-0.325000X-0.450000X0.325000X-0.450000X0*%
%ADD31RoundRect,0.250001X-0.499999X-0.924999X0.499999X-0.924999X0.499999X0.924999X-0.499999X0.924999X0*%
%ADD32R,0.500000X0.508000*%
%ADD33RoundRect,0.250000X0.475000X-0.337500X0.475000X0.337500X-0.475000X0.337500X-0.475000X-0.337500X0*%
%ADD34RoundRect,0.135000X0.185000X-0.135000X0.185000X0.135000X-0.185000X0.135000X-0.185000X-0.135000X0*%
%ADD35RoundRect,0.237500X0.287500X0.237500X-0.287500X0.237500X-0.287500X-0.237500X0.287500X-0.237500X0*%
G04 APERTURE END LIST*
G04 #@! TO.C,INP1*
G36*
X36117500Y-44090000D02*
G01*
X36617500Y-44090000D01*
X36617500Y-44940000D01*
X36117500Y-44940000D01*
X36117500Y-44090000D01*
G37*
G04 #@! TO.C,OM1*
G36*
X14417500Y-16405000D02*
G01*
X13917500Y-16405000D01*
X13917500Y-15530000D01*
X14417500Y-15530000D01*
X14417500Y-16405000D01*
G37*
G04 #@! TO.C,3V108*
D10*
X40107500Y-25155000D02*
X42217500Y-25155000D01*
X42217500Y-24155000D01*
X40107500Y-24155000D01*
X40107500Y-25155000D01*
G36*
X40107500Y-25155000D02*
G01*
X42217500Y-25155000D01*
X42217500Y-24155000D01*
X40107500Y-24155000D01*
X40107500Y-25155000D01*
G37*
G04 #@! TO.C,MCLK108*
G36*
X58817500Y-37665000D02*
G01*
X59117500Y-37665000D01*
X59117500Y-36165000D01*
X58817500Y-36165000D01*
X58817500Y-37665000D01*
G37*
G36*
X58817500Y-9205000D02*
G01*
X59117500Y-9205000D01*
X59117500Y-7705000D01*
X58817500Y-7705000D01*
X58817500Y-9205000D01*
G37*
G04 #@! TO.C,INM2*
G36*
X46917500Y-15687500D02*
G01*
X47417500Y-15687500D01*
X47417500Y-16537500D01*
X46917500Y-16537500D01*
X46917500Y-15687500D01*
G37*
G04 #@! TO.C,INP1*
G36*
X80117500Y-15630000D02*
G01*
X80617500Y-15630000D01*
X80617500Y-16480000D01*
X80117500Y-16480000D01*
X80117500Y-15630000D01*
G37*
G04 #@! TO.C,OP1*
G36*
X17917500Y-15705000D02*
G01*
X18417500Y-15705000D01*
X18417500Y-16555000D01*
X17917500Y-16555000D01*
X17917500Y-15705000D01*
G37*
G04 #@! TO.C,INM1*
G36*
X83717500Y-15567500D02*
G01*
X84217500Y-15567500D01*
X84217500Y-16417500D01*
X83717500Y-16417500D01*
X83717500Y-15567500D01*
G37*
G04 #@! TO.C,GND108*
G36*
X31621500Y-42769000D02*
G01*
X31113500Y-42769000D01*
X31113500Y-42269000D01*
X31621500Y-42269000D01*
X31621500Y-42769000D01*
G37*
G36*
X75621500Y-42769000D02*
G01*
X75113500Y-42769000D01*
X75113500Y-42269000D01*
X75621500Y-42269000D01*
X75621500Y-42769000D01*
G37*
G04 #@! TO.C,INP2*
G36*
X87317500Y-44100000D02*
G01*
X87817500Y-44100000D01*
X87817500Y-44950000D01*
X87317500Y-44950000D01*
X87317500Y-44100000D01*
G37*
G04 #@! TO.C,OM1*
G36*
X58417500Y-44865000D02*
G01*
X57917500Y-44865000D01*
X57917500Y-43990000D01*
X58417500Y-43990000D01*
X58417500Y-44865000D01*
G37*
G04 #@! TO.C,G119*
G36*
X44021500Y-24401000D02*
G01*
X43521500Y-24401000D01*
X43521500Y-24909000D01*
X44021500Y-24909000D01*
X44021500Y-24401000D01*
G37*
G04 #@! TO.C,SCL108*
G36*
X58713500Y-38969000D02*
G01*
X59213500Y-38969000D01*
X59213500Y-38461000D01*
X58713500Y-38461000D01*
X58713500Y-38969000D01*
G37*
G04 #@! TO.C,OP1*
G36*
X17917500Y-44165000D02*
G01*
X18417500Y-44165000D01*
X18417500Y-45015000D01*
X17917500Y-45015000D01*
X17917500Y-44165000D01*
G37*
G04 #@! TO.C,3V108*
X84107500Y-25155000D02*
X86217500Y-25155000D01*
X86217500Y-24155000D01*
X84107500Y-24155000D01*
X84107500Y-25155000D01*
G36*
X84107500Y-25155000D02*
G01*
X86217500Y-25155000D01*
X86217500Y-24155000D01*
X84107500Y-24155000D01*
X84107500Y-25155000D01*
G37*
G04 #@! TO.C,OP2*
G36*
X22217500Y-44090000D02*
G01*
X22717500Y-44090000D01*
X22717500Y-44940000D01*
X22217500Y-44940000D01*
X22217500Y-44090000D01*
G37*
G04 #@! TO.C,MCLK108*
G36*
X14817500Y-9205000D02*
G01*
X15117500Y-9205000D01*
X15117500Y-7705000D01*
X14817500Y-7705000D01*
X14817500Y-9205000D01*
G37*
G04 #@! TO.C,SDA108*
G36*
X57513500Y-40169000D02*
G01*
X58013500Y-40169000D01*
X58013500Y-39661000D01*
X57513500Y-39661000D01*
X57513500Y-40169000D01*
G37*
G04 #@! TO.C,INP2*
G36*
X43317500Y-15640000D02*
G01*
X43817500Y-15640000D01*
X43817500Y-16490000D01*
X43317500Y-16490000D01*
X43317500Y-15640000D01*
G37*
G04 #@! TO.C,G119*
G36*
X88021500Y-52861000D02*
G01*
X87521500Y-52861000D01*
X87521500Y-53369000D01*
X88021500Y-53369000D01*
X88021500Y-52861000D01*
G37*
G04 #@! TO.C,INM2*
G36*
X90917500Y-44147500D02*
G01*
X91417500Y-44147500D01*
X91417500Y-44997500D01*
X90917500Y-44997500D01*
X90917500Y-44147500D01*
G37*
G04 #@! TO.C,MCLK108*
G36*
X14817500Y-37665000D02*
G01*
X15117500Y-37665000D01*
X15117500Y-36165000D01*
X14817500Y-36165000D01*
X14817500Y-37665000D01*
G37*
G04 #@! TO.C,SDA108*
G36*
X13513500Y-40169000D02*
G01*
X14013500Y-40169000D01*
X14013500Y-39661000D01*
X13513500Y-39661000D01*
X13513500Y-40169000D01*
G37*
G04 #@! TO.C,INP2*
G36*
X43317500Y-44100000D02*
G01*
X43817500Y-44100000D01*
X43817500Y-44950000D01*
X43317500Y-44950000D01*
X43317500Y-44100000D01*
G37*
G04 #@! TO.C,OM2*
G36*
X26117500Y-15405000D02*
G01*
X26617500Y-15405000D01*
X26617500Y-16255000D01*
X26117500Y-16255000D01*
X26117500Y-15405000D01*
G37*
G04 #@! TO.C,OP1*
G36*
X61917500Y-44165000D02*
G01*
X62417500Y-44165000D01*
X62417500Y-45015000D01*
X61917500Y-45015000D01*
X61917500Y-44165000D01*
G37*
G04 #@! TO.C,INM1*
G36*
X83717500Y-44027500D02*
G01*
X84217500Y-44027500D01*
X84217500Y-44877500D01*
X83717500Y-44877500D01*
X83717500Y-44027500D01*
G37*
G04 #@! TO.C,OM1*
G36*
X14417500Y-44865000D02*
G01*
X13917500Y-44865000D01*
X13917500Y-43990000D01*
X14417500Y-43990000D01*
X14417500Y-44865000D01*
G37*
G04 #@! TO.C,OP2*
G36*
X66217500Y-15630000D02*
G01*
X66717500Y-15630000D01*
X66717500Y-16480000D01*
X66217500Y-16480000D01*
X66217500Y-15630000D01*
G37*
G04 #@! TO.C,INM1*
G36*
X39717500Y-44027500D02*
G01*
X40217500Y-44027500D01*
X40217500Y-44877500D01*
X39717500Y-44877500D01*
X39717500Y-44027500D01*
G37*
G04 #@! TO.C,SCL108*
G36*
X14713500Y-10509000D02*
G01*
X15213500Y-10509000D01*
X15213500Y-10001000D01*
X14713500Y-10001000D01*
X14713500Y-10509000D01*
G37*
G04 #@! TO.C,GND108*
G36*
X31621500Y-14309000D02*
G01*
X31113500Y-14309000D01*
X31113500Y-13809000D01*
X31621500Y-13809000D01*
X31621500Y-14309000D01*
G37*
G04 #@! TO.C,INM2*
G36*
X46917500Y-44147500D02*
G01*
X47417500Y-44147500D01*
X47417500Y-44997500D01*
X46917500Y-44997500D01*
X46917500Y-44147500D01*
G37*
G04 #@! TO.C,OM2*
G36*
X26117500Y-43865000D02*
G01*
X26617500Y-43865000D01*
X26617500Y-44715000D01*
X26117500Y-44715000D01*
X26117500Y-43865000D01*
G37*
G04 #@! TO.C,INP2*
G36*
X87317500Y-15640000D02*
G01*
X87817500Y-15640000D01*
X87817500Y-16490000D01*
X87317500Y-16490000D01*
X87317500Y-15640000D01*
G37*
G04 #@! TO.C,OP2*
G36*
X66217500Y-44090000D02*
G01*
X66717500Y-44090000D01*
X66717500Y-44940000D01*
X66217500Y-44940000D01*
X66217500Y-44090000D01*
G37*
G04 #@! TO.C,SCL108*
G36*
X58713500Y-10509000D02*
G01*
X59213500Y-10509000D01*
X59213500Y-10001000D01*
X58713500Y-10001000D01*
X58713500Y-10509000D01*
G37*
G04 #@! TO.C,OM2*
G36*
X70117500Y-43865000D02*
G01*
X70617500Y-43865000D01*
X70617500Y-44715000D01*
X70117500Y-44715000D01*
X70117500Y-43865000D01*
G37*
G04 #@! TO.C,INP1*
G36*
X80117500Y-44090000D02*
G01*
X80617500Y-44090000D01*
X80617500Y-44940000D01*
X80117500Y-44940000D01*
X80117500Y-44090000D01*
G37*
G04 #@! TO.C,OP1*
G36*
X61917500Y-15705000D02*
G01*
X62417500Y-15705000D01*
X62417500Y-16555000D01*
X61917500Y-16555000D01*
X61917500Y-15705000D01*
G37*
G04 #@! TO.C,INP1*
G36*
X36117500Y-15630000D02*
G01*
X36617500Y-15630000D01*
X36617500Y-16480000D01*
X36117500Y-16480000D01*
X36117500Y-15630000D01*
G37*
G04 #@! TO.C,SDA108*
G36*
X57513500Y-11709000D02*
G01*
X58013500Y-11709000D01*
X58013500Y-11201000D01*
X57513500Y-11201000D01*
X57513500Y-11709000D01*
G37*
G04 #@! TO.C,3V108*
X40107500Y-53615000D02*
X42217500Y-53615000D01*
X42217500Y-52615000D01*
X40107500Y-52615000D01*
X40107500Y-53615000D01*
G36*
X40107500Y-53615000D02*
G01*
X42217500Y-53615000D01*
X42217500Y-52615000D01*
X40107500Y-52615000D01*
X40107500Y-53615000D01*
G37*
G04 #@! TO.C,GND108*
G36*
X75621500Y-14309000D02*
G01*
X75113500Y-14309000D01*
X75113500Y-13809000D01*
X75621500Y-13809000D01*
X75621500Y-14309000D01*
G37*
G04 #@! TO.C,OM2*
G36*
X70117500Y-15405000D02*
G01*
X70617500Y-15405000D01*
X70617500Y-16255000D01*
X70117500Y-16255000D01*
X70117500Y-15405000D01*
G37*
G04 #@! TO.C,G119*
G36*
X88021500Y-24401000D02*
G01*
X87521500Y-24401000D01*
X87521500Y-24909000D01*
X88021500Y-24909000D01*
X88021500Y-24401000D01*
G37*
G04 #@! TO.C,SDA108*
G36*
X13513500Y-11709000D02*
G01*
X14013500Y-11709000D01*
X14013500Y-11201000D01*
X13513500Y-11201000D01*
X13513500Y-11709000D01*
G37*
G04 #@! TO.C,INM2*
G36*
X90917500Y-15687500D02*
G01*
X91417500Y-15687500D01*
X91417500Y-16537500D01*
X90917500Y-16537500D01*
X90917500Y-15687500D01*
G37*
G04 #@! TO.C,3V108*
X84107500Y-53615000D02*
X86217500Y-53615000D01*
X86217500Y-52615000D01*
X84107500Y-52615000D01*
X84107500Y-53615000D01*
G36*
X84107500Y-53615000D02*
G01*
X86217500Y-53615000D01*
X86217500Y-52615000D01*
X84107500Y-52615000D01*
X84107500Y-53615000D01*
G37*
G04 #@! TO.C,OP2*
G36*
X22217500Y-15630000D02*
G01*
X22717500Y-15630000D01*
X22717500Y-16480000D01*
X22217500Y-16480000D01*
X22217500Y-15630000D01*
G37*
G04 #@! TO.C,G119*
G36*
X44021500Y-52861000D02*
G01*
X43521500Y-52861000D01*
X43521500Y-53369000D01*
X44021500Y-53369000D01*
X44021500Y-52861000D01*
G37*
G04 #@! TO.C,SCL108*
G36*
X14713500Y-38969000D02*
G01*
X15213500Y-38969000D01*
X15213500Y-38461000D01*
X14713500Y-38461000D01*
X14713500Y-38969000D01*
G37*
G04 #@! TO.C,OM1*
G36*
X58417500Y-16405000D02*
G01*
X57917500Y-16405000D01*
X57917500Y-15530000D01*
X58417500Y-15530000D01*
X58417500Y-16405000D01*
G37*
G04 #@! TO.C,INM1*
G36*
X39717500Y-15567500D02*
G01*
X40217500Y-15567500D01*
X40217500Y-16417500D01*
X39717500Y-16417500D01*
X39717500Y-15567500D01*
G37*
G04 #@! TD*
D11*
G04 #@! TO.C,board_outline108*
X11505000Y-60115000D03*
D12*
X8965000Y-60115000D03*
X11505000Y-57575000D03*
X8965000Y-57575000D03*
X11505000Y-55035000D03*
X8965000Y-55035000D03*
X11505000Y-52495000D03*
X8965000Y-52495000D03*
X11505000Y-49955000D03*
X8965000Y-49955000D03*
X11505000Y-47415000D03*
X8965000Y-47415000D03*
X11505000Y-44875000D03*
X8965000Y-44875000D03*
X11505000Y-42335000D03*
X8965000Y-42335000D03*
X11505000Y-39795000D03*
X8965000Y-39795000D03*
X11505000Y-37255000D03*
X8965000Y-37255000D03*
D11*
X24215000Y-39800000D03*
X24215000Y-37260000D03*
D12*
X26755000Y-39800000D03*
X26755000Y-37260000D03*
X29295000Y-39800000D03*
X29295000Y-37260000D03*
X31835000Y-39800000D03*
X31835000Y-37260000D03*
X34375000Y-39800000D03*
X34375000Y-37260000D03*
X36915000Y-39800000D03*
X36915000Y-37260000D03*
X39455000Y-39800000D03*
X39455000Y-37260000D03*
X41995000Y-39800000D03*
X41995000Y-37260000D03*
D11*
X24215000Y-60120000D03*
D12*
X26755000Y-60120000D03*
X29295000Y-60120000D03*
X31835000Y-60120000D03*
X34375000Y-60120000D03*
X36915000Y-60120000D03*
X39455000Y-60120000D03*
X41995000Y-60120000D03*
X47060000Y-55040000D03*
X47060000Y-52500000D03*
X47060000Y-49960000D03*
X44520000Y-39800000D03*
D13*
X19120000Y-37260000D03*
X47060000Y-37260000D03*
X19120000Y-60120000D03*
X47060000Y-60120000D03*
G04 #@! TD*
D11*
G04 #@! TO.C,board_outline108*
X11505000Y-31655000D03*
D12*
X8965000Y-31655000D03*
X11505000Y-29115000D03*
X8965000Y-29115000D03*
X11505000Y-26575000D03*
X8965000Y-26575000D03*
X11505000Y-24035000D03*
X8965000Y-24035000D03*
X11505000Y-21495000D03*
X8965000Y-21495000D03*
X11505000Y-18955000D03*
X8965000Y-18955000D03*
X11505000Y-16415000D03*
X8965000Y-16415000D03*
X11505000Y-13875000D03*
X8965000Y-13875000D03*
X11505000Y-11335000D03*
X8965000Y-11335000D03*
X11505000Y-8795000D03*
X8965000Y-8795000D03*
D11*
X24215000Y-11340000D03*
X24215000Y-8800000D03*
D12*
X26755000Y-11340000D03*
X26755000Y-8800000D03*
X29295000Y-11340000D03*
X29295000Y-8800000D03*
X31835000Y-11340000D03*
X31835000Y-8800000D03*
X34375000Y-11340000D03*
X34375000Y-8800000D03*
X36915000Y-11340000D03*
X36915000Y-8800000D03*
X39455000Y-11340000D03*
X39455000Y-8800000D03*
X41995000Y-11340000D03*
X41995000Y-8800000D03*
D11*
X24215000Y-31660000D03*
D12*
X26755000Y-31660000D03*
X29295000Y-31660000D03*
X31835000Y-31660000D03*
X34375000Y-31660000D03*
X36915000Y-31660000D03*
X39455000Y-31660000D03*
X41995000Y-31660000D03*
X47060000Y-26580000D03*
X47060000Y-24040000D03*
X47060000Y-21500000D03*
X44520000Y-11340000D03*
D13*
X19120000Y-8800000D03*
X47060000Y-8800000D03*
X19120000Y-31660000D03*
X47060000Y-31660000D03*
G04 #@! TD*
D11*
G04 #@! TO.C,board_outline108*
X55505000Y-60115000D03*
D12*
X52965000Y-60115000D03*
X55505000Y-57575000D03*
X52965000Y-57575000D03*
X55505000Y-55035000D03*
X52965000Y-55035000D03*
X55505000Y-52495000D03*
X52965000Y-52495000D03*
X55505000Y-49955000D03*
X52965000Y-49955000D03*
X55505000Y-47415000D03*
X52965000Y-47415000D03*
X55505000Y-44875000D03*
X52965000Y-44875000D03*
X55505000Y-42335000D03*
X52965000Y-42335000D03*
X55505000Y-39795000D03*
X52965000Y-39795000D03*
X55505000Y-37255000D03*
X52965000Y-37255000D03*
D11*
X68215000Y-39800000D03*
X68215000Y-37260000D03*
D12*
X70755000Y-39800000D03*
X70755000Y-37260000D03*
X73295000Y-39800000D03*
X73295000Y-37260000D03*
X75835000Y-39800000D03*
X75835000Y-37260000D03*
X78375000Y-39800000D03*
X78375000Y-37260000D03*
X80915000Y-39800000D03*
X80915000Y-37260000D03*
X83455000Y-39800000D03*
X83455000Y-37260000D03*
X85995000Y-39800000D03*
X85995000Y-37260000D03*
D11*
X68215000Y-60120000D03*
D12*
X70755000Y-60120000D03*
X73295000Y-60120000D03*
X75835000Y-60120000D03*
X78375000Y-60120000D03*
X80915000Y-60120000D03*
X83455000Y-60120000D03*
X85995000Y-60120000D03*
X91060000Y-55040000D03*
X91060000Y-52500000D03*
X91060000Y-49960000D03*
X88520000Y-39800000D03*
D13*
X63120000Y-37260000D03*
X91060000Y-37260000D03*
X63120000Y-60120000D03*
X91060000Y-60120000D03*
G04 #@! TD*
D11*
G04 #@! TO.C,board_outline108*
X55505000Y-31655000D03*
D12*
X52965000Y-31655000D03*
X55505000Y-29115000D03*
X52965000Y-29115000D03*
X55505000Y-26575000D03*
X52965000Y-26575000D03*
X55505000Y-24035000D03*
X52965000Y-24035000D03*
X55505000Y-21495000D03*
X52965000Y-21495000D03*
X55505000Y-18955000D03*
X52965000Y-18955000D03*
X55505000Y-16415000D03*
X52965000Y-16415000D03*
X55505000Y-13875000D03*
X52965000Y-13875000D03*
X55505000Y-11335000D03*
X52965000Y-11335000D03*
X55505000Y-8795000D03*
X52965000Y-8795000D03*
D11*
X68215000Y-11340000D03*
X68215000Y-8800000D03*
D12*
X70755000Y-11340000D03*
X70755000Y-8800000D03*
X73295000Y-11340000D03*
X73295000Y-8800000D03*
X75835000Y-11340000D03*
X75835000Y-8800000D03*
X78375000Y-11340000D03*
X78375000Y-8800000D03*
X80915000Y-11340000D03*
X80915000Y-8800000D03*
X83455000Y-11340000D03*
X83455000Y-8800000D03*
X85995000Y-11340000D03*
X85995000Y-8800000D03*
D11*
X68215000Y-31660000D03*
D12*
X70755000Y-31660000D03*
X73295000Y-31660000D03*
X75835000Y-31660000D03*
X78375000Y-31660000D03*
X80915000Y-31660000D03*
X83455000Y-31660000D03*
X85995000Y-31660000D03*
X91060000Y-26580000D03*
X91060000Y-24040000D03*
X91060000Y-21500000D03*
X88520000Y-11340000D03*
D13*
X63120000Y-8800000D03*
X91060000Y-8800000D03*
X63120000Y-31660000D03*
X91060000Y-31660000D03*
G04 #@! TD*
D14*
G04 #@! TO.C,C131*
X14342500Y-59115000D03*
X16392500Y-59115000D03*
G04 #@! TD*
D15*
G04 #@! TO.C,INP1*
X36367500Y-43840000D03*
D16*
X36367500Y-44715000D03*
G04 #@! TD*
D17*
G04 #@! TO.C,D109*
X58195000Y-42615000D03*
X59340000Y-42615000D03*
G04 #@! TD*
D18*
G04 #@! TO.C,SCL109*
X33565000Y-56515000D03*
X32370000Y-56515000D03*
G04 #@! TD*
D17*
G04 #@! TO.C,D111*
X26495000Y-42615000D03*
X27640000Y-42615000D03*
G04 #@! TD*
G04 #@! TO.C,D111*
X26495000Y-14155000D03*
X27640000Y-14155000D03*
G04 #@! TD*
D19*
G04 #@! TO.C,C126*
X82767500Y-48052500D03*
X82767500Y-49777500D03*
G04 #@! TD*
G04 #@! TO.C,C127*
X80067500Y-19592500D03*
X80067500Y-21317500D03*
G04 #@! TD*
D15*
G04 #@! TO.C,OM1*
X14167500Y-16655000D03*
X14167500Y-15805000D03*
G04 #@! TD*
D20*
G04 #@! TO.C,FB108*
X45667500Y-15790000D03*
X45667500Y-17865000D03*
G04 #@! TD*
G04 #@! TO.C,FB108*
X89667500Y-15790000D03*
X89667500Y-17865000D03*
G04 #@! TD*
D17*
G04 #@! TO.C,D110*
X66795000Y-14155000D03*
X67940000Y-14155000D03*
G04 #@! TD*
D21*
G04 #@! TO.C,C110*
X19467500Y-54040000D03*
X19467500Y-50790000D03*
G04 #@! TD*
G04 #@! TO.C,C114*
X15167500Y-25580000D03*
X15167500Y-22330000D03*
G04 #@! TD*
D22*
G04 #@! TO.C,D112*
X46340000Y-42597500D03*
X45195000Y-42597500D03*
G04 #@! TD*
D17*
G04 #@! TO.C,D110*
X22795000Y-42615000D03*
X23940000Y-42615000D03*
G04 #@! TD*
D23*
G04 #@! TO.C,MCLK108*
X58317500Y-36915000D03*
X59617500Y-36915000D03*
G04 #@! TD*
D24*
G04 #@! TO.C,R108*
X18992500Y-48615000D03*
X20742500Y-48615000D03*
G04 #@! TD*
D25*
G04 #@! TO.C,C121*
X24167500Y-17917500D03*
X24167500Y-16192500D03*
G04 #@! TD*
D22*
G04 #@! TO.C,D113*
X86740000Y-42550000D03*
X85595000Y-42550000D03*
G04 #@! TD*
D14*
G04 #@! TO.C,C131*
X14342500Y-30655000D03*
X16392500Y-30655000D03*
G04 #@! TD*
D20*
G04 #@! TO.C,FB109*
X86067500Y-44212500D03*
X86067500Y-46287500D03*
G04 #@! TD*
D24*
G04 #@! TO.C,R111*
X23292500Y-20155000D03*
X25042500Y-20155000D03*
G04 #@! TD*
D22*
G04 #@! TO.C,D114*
X39140000Y-42550000D03*
X37995000Y-42550000D03*
G04 #@! TD*
D19*
G04 #@! TO.C,C126*
X82767500Y-19592500D03*
X82767500Y-21317500D03*
G04 #@! TD*
D17*
G04 #@! TO.C,D109*
X14195000Y-14155000D03*
X15340000Y-14155000D03*
G04 #@! TD*
D21*
G04 #@! TO.C,C120*
X67767500Y-25580000D03*
X67767500Y-22330000D03*
G04 #@! TD*
D19*
G04 #@! TO.C,C124*
X88967500Y-48052500D03*
X88967500Y-49777500D03*
G04 #@! TD*
D23*
G04 #@! TO.C,MCLK108*
X58317500Y-8455000D03*
X59617500Y-8455000D03*
G04 #@! TD*
D20*
G04 #@! TO.C,FB108*
X89667500Y-44250000D03*
X89667500Y-46325000D03*
G04 #@! TD*
D25*
G04 #@! TO.C,C121*
X68167500Y-17917500D03*
X68167500Y-16192500D03*
G04 #@! TD*
D15*
G04 #@! TO.C,INM2*
X47167500Y-15437500D03*
D16*
X47167500Y-16312500D03*
G04 #@! TD*
D19*
G04 #@! TO.C,C125*
X86367500Y-48152500D03*
X86367500Y-49877500D03*
G04 #@! TD*
G04 #@! TO.C,C127*
X80067500Y-48052500D03*
X80067500Y-49777500D03*
G04 #@! TD*
G04 #@! TO.C,C127*
X36067500Y-48052500D03*
X36067500Y-49777500D03*
G04 #@! TD*
G04 #@! TO.C,C125*
X42367500Y-48152500D03*
X42367500Y-49877500D03*
G04 #@! TD*
D22*
G04 #@! TO.C,D112*
X90340000Y-42597500D03*
X89195000Y-42597500D03*
G04 #@! TD*
D15*
G04 #@! TO.C,INP1*
X80367500Y-15380000D03*
D16*
X80367500Y-16255000D03*
G04 #@! TD*
D25*
G04 #@! TO.C,C121*
X68167500Y-46377500D03*
X68167500Y-44652500D03*
G04 #@! TD*
D17*
G04 #@! TO.C,D110*
X66795000Y-42615000D03*
X67940000Y-42615000D03*
G04 #@! TD*
D19*
G04 #@! TO.C,C126*
X38767500Y-19592500D03*
X38767500Y-21317500D03*
G04 #@! TD*
D26*
G04 #@! TO.C,R116*
X71667500Y-20180000D03*
X71667500Y-21930000D03*
G04 #@! TD*
D22*
G04 #@! TO.C,D114*
X83140000Y-42550000D03*
X81995000Y-42550000D03*
G04 #@! TD*
D15*
G04 #@! TO.C,OP1*
X18167500Y-15455000D03*
D16*
X18167500Y-16330000D03*
G04 #@! TD*
D17*
G04 #@! TO.C,D110*
X22795000Y-14155000D03*
X23940000Y-14155000D03*
G04 #@! TD*
D25*
G04 #@! TO.C,C123*
X28067500Y-46377500D03*
X28067500Y-44652500D03*
G04 #@! TD*
D15*
G04 #@! TO.C,INM1*
X83967500Y-15317500D03*
D16*
X83967500Y-16192500D03*
G04 #@! TD*
D27*
G04 #@! TO.C,U109*
X40329314Y-28607500D03*
X39379314Y-28607500D03*
X38429314Y-28607500D03*
X38429314Y-26332500D03*
X40329314Y-26332500D03*
G04 #@! TD*
D19*
G04 #@! TO.C,C127*
X36067500Y-19592500D03*
X36067500Y-21317500D03*
G04 #@! TD*
D25*
G04 #@! TO.C,C113*
X19867500Y-46377500D03*
X19867500Y-44652500D03*
G04 #@! TD*
D28*
G04 #@! TO.C,GND108*
X31367500Y-43019000D03*
D29*
X31367500Y-42015000D03*
G04 #@! TD*
D30*
G04 #@! TO.C,C130*
X60392500Y-28455000D03*
X58342500Y-28455000D03*
G04 #@! TD*
D28*
G04 #@! TO.C,GND108*
X75367500Y-43019000D03*
D29*
X75367500Y-42015000D03*
G04 #@! TD*
D22*
G04 #@! TO.C,D113*
X42740000Y-42550000D03*
X41595000Y-42550000D03*
G04 #@! TD*
D20*
G04 #@! TO.C,T\u002AC110*
X80567500Y-54677500D03*
X80567500Y-56752500D03*
G04 #@! TD*
D22*
G04 #@! TO.C,D115*
X35540000Y-42415000D03*
X34395000Y-42415000D03*
G04 #@! TD*
D15*
G04 #@! TO.C,INP2*
X87567500Y-43850000D03*
D16*
X87567500Y-44725000D03*
G04 #@! TD*
D30*
G04 #@! TO.C,C130*
X60392500Y-56915000D03*
X58342500Y-56915000D03*
G04 #@! TD*
D17*
G04 #@! TO.C,D108*
X62495000Y-42615000D03*
X63640000Y-42615000D03*
G04 #@! TD*
D21*
G04 #@! TO.C,C110*
X19467500Y-25580000D03*
X19467500Y-22330000D03*
G04 #@! TD*
D19*
G04 #@! TO.C,C129*
X78517117Y-53440582D03*
X78517117Y-55165582D03*
G04 #@! TD*
D17*
G04 #@! TO.C,D108*
X62495000Y-14155000D03*
X63640000Y-14155000D03*
G04 #@! TD*
D31*
G04 #@! TO.C,C122*
X27267501Y-53315000D03*
X30517501Y-53315000D03*
G04 #@! TD*
D25*
G04 #@! TO.C,T\u002AC109*
X86367500Y-56815000D03*
X86367500Y-55090000D03*
G04 #@! TD*
D15*
G04 #@! TO.C,OM1*
X58167500Y-45115000D03*
X58167500Y-44265000D03*
G04 #@! TD*
D25*
G04 #@! TO.C,C113*
X63867500Y-46377500D03*
X63867500Y-44652500D03*
G04 #@! TD*
D21*
G04 #@! TO.C,C114*
X59167500Y-54040000D03*
X59167500Y-50790000D03*
G04 #@! TD*
D22*
G04 #@! TO.C,D113*
X86740000Y-14090000D03*
X85595000Y-14090000D03*
G04 #@! TD*
D24*
G04 #@! TO.C,R111*
X67292500Y-20155000D03*
X69042500Y-20155000D03*
G04 #@! TD*
D27*
G04 #@! TO.C,U109*
X84329314Y-57067500D03*
X83379314Y-57067500D03*
X82429314Y-57067500D03*
X82429314Y-54792500D03*
X84329314Y-54792500D03*
G04 #@! TD*
D19*
G04 #@! TO.C,C126*
X38767500Y-48052500D03*
X38767500Y-49777500D03*
G04 #@! TD*
D32*
G04 #@! TO.C,G119*
X44271500Y-24655000D03*
D29*
X43267500Y-24655000D03*
G04 #@! TD*
D20*
G04 #@! TO.C,T\u002AC110*
X80567500Y-26217500D03*
X80567500Y-28292500D03*
G04 #@! TD*
D25*
G04 #@! TO.C,T\u002AC109*
X42367500Y-56815000D03*
X42367500Y-55090000D03*
G04 #@! TD*
D31*
G04 #@! TO.C,C122*
X27267501Y-24855000D03*
X30517501Y-24855000D03*
G04 #@! TD*
D32*
G04 #@! TO.C,SCL108*
X58463500Y-38715000D03*
D29*
X59467500Y-38715000D03*
G04 #@! TD*
D15*
G04 #@! TO.C,OP1*
X18167500Y-43915000D03*
D16*
X18167500Y-44790000D03*
G04 #@! TD*
D33*
G04 #@! TO.C,T\u002AC108*
X88301814Y-28530000D03*
X88301814Y-26455000D03*
G04 #@! TD*
D15*
G04 #@! TO.C,OP2*
X22467500Y-43840000D03*
D16*
X22467500Y-44715000D03*
G04 #@! TD*
D25*
G04 #@! TO.C,C117*
X59567500Y-46377500D03*
X59567500Y-44652500D03*
G04 #@! TD*
D19*
G04 #@! TO.C,C124*
X88967500Y-19592500D03*
X88967500Y-21317500D03*
G04 #@! TD*
D23*
G04 #@! TO.C,MCLK108*
X14317500Y-8455000D03*
X15617500Y-8455000D03*
G04 #@! TD*
D21*
G04 #@! TO.C,C120*
X23767500Y-54040000D03*
X23767500Y-50790000D03*
G04 #@! TD*
D32*
G04 #@! TO.C,SDA108*
X57263500Y-39915000D03*
D29*
X58267500Y-39915000D03*
G04 #@! TD*
D25*
G04 #@! TO.C,C117*
X15567500Y-46377500D03*
X15567500Y-44652500D03*
G04 #@! TD*
D15*
G04 #@! TO.C,INP2*
X43567500Y-15390000D03*
D16*
X43567500Y-16265000D03*
G04 #@! TD*
D20*
G04 #@! TO.C,FB111*
X78867500Y-15517500D03*
X78867500Y-17592500D03*
G04 #@! TD*
D24*
G04 #@! TO.C,R108*
X62992500Y-20155000D03*
X64742500Y-20155000D03*
G04 #@! TD*
D33*
G04 #@! TO.C,T\u002AC108*
X44301814Y-28530000D03*
X44301814Y-26455000D03*
G04 #@! TD*
D20*
G04 #@! TO.C,FB110*
X82467500Y-44140000D03*
X82467500Y-46215000D03*
G04 #@! TD*
D32*
G04 #@! TO.C,G119*
X88271500Y-53115000D03*
D29*
X87267500Y-53115000D03*
G04 #@! TD*
D22*
G04 #@! TO.C,D113*
X42740000Y-14090000D03*
X41595000Y-14090000D03*
G04 #@! TD*
D15*
G04 #@! TO.C,INM2*
X91167500Y-43897500D03*
D16*
X91167500Y-44772500D03*
G04 #@! TD*
D20*
G04 #@! TO.C,FB110*
X38467500Y-15680000D03*
X38467500Y-17755000D03*
G04 #@! TD*
D14*
G04 #@! TO.C,C131*
X58342500Y-59115000D03*
X60392500Y-59115000D03*
G04 #@! TD*
D23*
G04 #@! TO.C,MCLK108*
X14317500Y-36915000D03*
X15617500Y-36915000D03*
G04 #@! TD*
D25*
G04 #@! TO.C,C113*
X63867500Y-17917500D03*
X63867500Y-16192500D03*
G04 #@! TD*
D32*
G04 #@! TO.C,SDA108*
X13263500Y-39915000D03*
D29*
X14267500Y-39915000D03*
G04 #@! TD*
D25*
G04 #@! TO.C,C121*
X24167500Y-46377500D03*
X24167500Y-44652500D03*
G04 #@! TD*
D20*
G04 #@! TO.C,FB110*
X82467500Y-15680000D03*
X82467500Y-17755000D03*
G04 #@! TD*
D22*
G04 #@! TO.C,D115*
X79540000Y-42415000D03*
X78395000Y-42415000D03*
G04 #@! TD*
D17*
G04 #@! TO.C,D108*
X18495000Y-14155000D03*
X19640000Y-14155000D03*
G04 #@! TD*
D21*
G04 #@! TO.C,C110*
X63467500Y-54040000D03*
X63467500Y-50790000D03*
G04 #@! TD*
D19*
G04 #@! TO.C,C124*
X44967500Y-48052500D03*
X44967500Y-49777500D03*
G04 #@! TD*
D21*
G04 #@! TO.C,C114*
X59167500Y-25580000D03*
X59167500Y-22330000D03*
G04 #@! TD*
D34*
G04 #@! TO.C,R128*
X34767500Y-29165000D03*
X34767500Y-28145000D03*
G04 #@! TD*
D15*
G04 #@! TO.C,INP2*
X43567500Y-43850000D03*
D16*
X43567500Y-44725000D03*
G04 #@! TD*
D33*
G04 #@! TO.C,T\u002AC108*
X88301814Y-56990000D03*
X88301814Y-54915000D03*
G04 #@! TD*
D15*
G04 #@! TO.C,OM2*
X26367500Y-15155000D03*
D16*
X26367500Y-16030000D03*
G04 #@! TD*
D15*
G04 #@! TO.C,OP1*
X62167500Y-43915000D03*
D16*
X62167500Y-44790000D03*
G04 #@! TD*
D18*
G04 #@! TO.C,SCL109*
X77565000Y-56515000D03*
X76370000Y-56515000D03*
G04 #@! TD*
D19*
G04 #@! TO.C,C125*
X42367500Y-19692500D03*
X42367500Y-21417500D03*
G04 #@! TD*
D18*
G04 #@! TO.C,SCL109*
X77565000Y-28055000D03*
X76370000Y-28055000D03*
G04 #@! TD*
D24*
G04 #@! TO.C,R111*
X23292500Y-48615000D03*
X25042500Y-48615000D03*
G04 #@! TD*
D15*
G04 #@! TO.C,INM1*
X83967500Y-43777500D03*
D16*
X83967500Y-44652500D03*
G04 #@! TD*
D25*
G04 #@! TO.C,C117*
X15567500Y-17917500D03*
X15567500Y-16192500D03*
G04 #@! TD*
D26*
G04 #@! TO.C,R116*
X27667500Y-48640000D03*
X27667500Y-50390000D03*
G04 #@! TD*
D20*
G04 #@! TO.C,T\u002AC110*
X36567500Y-26217500D03*
X36567500Y-28292500D03*
G04 #@! TD*
D34*
G04 #@! TO.C,R128*
X78767500Y-29165000D03*
X78767500Y-28145000D03*
G04 #@! TD*
D15*
G04 #@! TO.C,OM1*
X14167500Y-45115000D03*
X14167500Y-44265000D03*
G04 #@! TD*
G04 #@! TO.C,OP2*
X66467500Y-15380000D03*
D16*
X66467500Y-16255000D03*
G04 #@! TD*
D17*
G04 #@! TO.C,D108*
X18495000Y-42615000D03*
X19640000Y-42615000D03*
G04 #@! TD*
D15*
G04 #@! TO.C,INM1*
X39967500Y-43777500D03*
D16*
X39967500Y-44652500D03*
G04 #@! TD*
D24*
G04 #@! TO.C,R108*
X62992500Y-48615000D03*
X64742500Y-48615000D03*
G04 #@! TD*
D18*
G04 #@! TO.C,SCL109*
X33565000Y-28055000D03*
X32370000Y-28055000D03*
G04 #@! TD*
D25*
G04 #@! TO.C,C123*
X72067500Y-46377500D03*
X72067500Y-44652500D03*
G04 #@! TD*
D32*
G04 #@! TO.C,SCL108*
X14463500Y-10255000D03*
D29*
X15467500Y-10255000D03*
G04 #@! TD*
D22*
G04 #@! TO.C,D112*
X90340000Y-14137500D03*
X89195000Y-14137500D03*
G04 #@! TD*
D17*
G04 #@! TO.C,D109*
X58195000Y-14155000D03*
X59340000Y-14155000D03*
G04 #@! TD*
D30*
G04 #@! TO.C,C130*
X16392500Y-56915000D03*
X14342500Y-56915000D03*
G04 #@! TD*
D28*
G04 #@! TO.C,GND108*
X31367500Y-14559000D03*
D29*
X31367500Y-13555000D03*
G04 #@! TD*
D30*
G04 #@! TO.C,C130*
X16392500Y-28455000D03*
X14342500Y-28455000D03*
G04 #@! TD*
D20*
G04 #@! TO.C,T\u002AC110*
X36567500Y-54677500D03*
X36567500Y-56752500D03*
G04 #@! TD*
D31*
G04 #@! TO.C,C122*
X71267501Y-53315000D03*
X74517501Y-53315000D03*
G04 #@! TD*
D35*
G04 #@! TO.C,R109*
X60442500Y-48615000D03*
X58692500Y-48615000D03*
G04 #@! TD*
D14*
G04 #@! TO.C,C131*
X58342500Y-30655000D03*
X60392500Y-30655000D03*
G04 #@! TD*
D19*
G04 #@! TO.C,C129*
X34517117Y-24980582D03*
X34517117Y-26705582D03*
G04 #@! TD*
G04 #@! TO.C,C129*
X34517117Y-53440582D03*
X34517117Y-55165582D03*
G04 #@! TD*
D15*
G04 #@! TO.C,INM2*
X47167500Y-43897500D03*
D16*
X47167500Y-44772500D03*
G04 #@! TD*
D15*
G04 #@! TO.C,OM2*
X26367500Y-43615000D03*
D16*
X26367500Y-44490000D03*
G04 #@! TD*
D25*
G04 #@! TO.C,C117*
X59567500Y-17917500D03*
X59567500Y-16192500D03*
G04 #@! TD*
D27*
G04 #@! TO.C,U109*
X40329314Y-57067500D03*
X39379314Y-57067500D03*
X38429314Y-57067500D03*
X38429314Y-54792500D03*
X40329314Y-54792500D03*
G04 #@! TD*
D15*
G04 #@! TO.C,INP2*
X87567500Y-15390000D03*
D16*
X87567500Y-16265000D03*
G04 #@! TD*
D20*
G04 #@! TO.C,FB111*
X34867500Y-15517500D03*
X34867500Y-17592500D03*
G04 #@! TD*
D35*
G04 #@! TO.C,R109*
X16442500Y-20155000D03*
X14692500Y-20155000D03*
G04 #@! TD*
D25*
G04 #@! TO.C,T\u002AC109*
X42367500Y-28355000D03*
X42367500Y-26630000D03*
G04 #@! TD*
D22*
G04 #@! TO.C,D114*
X39140000Y-14090000D03*
X37995000Y-14090000D03*
G04 #@! TD*
D15*
G04 #@! TO.C,OP2*
X66467500Y-43840000D03*
D16*
X66467500Y-44715000D03*
G04 #@! TD*
D32*
G04 #@! TO.C,SCL108*
X58463500Y-10255000D03*
D29*
X59467500Y-10255000D03*
G04 #@! TD*
D20*
G04 #@! TO.C,FB110*
X38467500Y-44140000D03*
X38467500Y-46215000D03*
G04 #@! TD*
D33*
G04 #@! TO.C,T\u002AC108*
X44301814Y-56990000D03*
X44301814Y-54915000D03*
G04 #@! TD*
D15*
G04 #@! TO.C,OM2*
X70367500Y-43615000D03*
D16*
X70367500Y-44490000D03*
G04 #@! TD*
D21*
G04 #@! TO.C,C114*
X15167500Y-54040000D03*
X15167500Y-50790000D03*
G04 #@! TD*
D24*
G04 #@! TO.C,R111*
X67292500Y-48615000D03*
X69042500Y-48615000D03*
G04 #@! TD*
D20*
G04 #@! TO.C,FB108*
X45667500Y-44250000D03*
X45667500Y-46325000D03*
G04 #@! TD*
D31*
G04 #@! TO.C,C122*
X71267501Y-24855000D03*
X74517501Y-24855000D03*
G04 #@! TD*
D17*
G04 #@! TO.C,D111*
X70495000Y-42615000D03*
X71640000Y-42615000D03*
G04 #@! TD*
D25*
G04 #@! TO.C,C123*
X28067500Y-17917500D03*
X28067500Y-16192500D03*
G04 #@! TD*
D15*
G04 #@! TO.C,INP1*
X80367500Y-43840000D03*
D16*
X80367500Y-44715000D03*
G04 #@! TD*
D17*
G04 #@! TO.C,D109*
X14195000Y-42615000D03*
X15340000Y-42615000D03*
G04 #@! TD*
D22*
G04 #@! TO.C,D115*
X79540000Y-13955000D03*
X78395000Y-13955000D03*
G04 #@! TD*
D15*
G04 #@! TO.C,OP1*
X62167500Y-15455000D03*
D16*
X62167500Y-16330000D03*
G04 #@! TD*
D35*
G04 #@! TO.C,R109*
X16442500Y-48615000D03*
X14692500Y-48615000D03*
G04 #@! TD*
D15*
G04 #@! TO.C,INP1*
X36367500Y-15380000D03*
D16*
X36367500Y-16255000D03*
G04 #@! TD*
D32*
G04 #@! TO.C,SDA108*
X57263500Y-11455000D03*
D29*
X58267500Y-11455000D03*
G04 #@! TD*
D20*
G04 #@! TO.C,FB111*
X78867500Y-43977500D03*
X78867500Y-46052500D03*
G04 #@! TD*
D28*
G04 #@! TO.C,GND108*
X75367500Y-14559000D03*
D29*
X75367500Y-13555000D03*
G04 #@! TD*
D34*
G04 #@! TO.C,R128*
X78767500Y-57625000D03*
X78767500Y-56605000D03*
G04 #@! TD*
D24*
G04 #@! TO.C,R108*
X18992500Y-20155000D03*
X20742500Y-20155000D03*
G04 #@! TD*
D22*
G04 #@! TO.C,D114*
X83140000Y-14090000D03*
X81995000Y-14090000D03*
G04 #@! TD*
D15*
G04 #@! TO.C,OM2*
X70367500Y-15155000D03*
D16*
X70367500Y-16030000D03*
G04 #@! TD*
D35*
G04 #@! TO.C,R109*
X60442500Y-20155000D03*
X58692500Y-20155000D03*
G04 #@! TD*
D22*
G04 #@! TO.C,D115*
X35540000Y-13955000D03*
X34395000Y-13955000D03*
G04 #@! TD*
D21*
G04 #@! TO.C,C120*
X67767500Y-54040000D03*
X67767500Y-50790000D03*
G04 #@! TD*
D20*
G04 #@! TO.C,FB111*
X34867500Y-43977500D03*
X34867500Y-46052500D03*
G04 #@! TD*
D19*
G04 #@! TO.C,C125*
X86367500Y-19692500D03*
X86367500Y-21417500D03*
G04 #@! TD*
D25*
G04 #@! TO.C,C113*
X19867500Y-17917500D03*
X19867500Y-16192500D03*
G04 #@! TD*
D22*
G04 #@! TO.C,D112*
X46340000Y-14137500D03*
X45195000Y-14137500D03*
G04 #@! TD*
D32*
G04 #@! TO.C,G119*
X88271500Y-24655000D03*
D29*
X87267500Y-24655000D03*
G04 #@! TD*
D27*
G04 #@! TO.C,U109*
X84329314Y-28607500D03*
X83379314Y-28607500D03*
X82429314Y-28607500D03*
X82429314Y-26332500D03*
X84329314Y-26332500D03*
G04 #@! TD*
D32*
G04 #@! TO.C,SDA108*
X13263500Y-11455000D03*
D29*
X14267500Y-11455000D03*
G04 #@! TD*
D15*
G04 #@! TO.C,INM2*
X91167500Y-15437500D03*
D16*
X91167500Y-16312500D03*
G04 #@! TD*
D25*
G04 #@! TO.C,C123*
X72067500Y-17917500D03*
X72067500Y-16192500D03*
G04 #@! TD*
D15*
G04 #@! TO.C,OP2*
X22467500Y-15380000D03*
D16*
X22467500Y-16255000D03*
G04 #@! TD*
D19*
G04 #@! TO.C,C124*
X44967500Y-19592500D03*
X44967500Y-21317500D03*
G04 #@! TD*
G04 #@! TO.C,C129*
X78517117Y-24980582D03*
X78517117Y-26705582D03*
G04 #@! TD*
D32*
G04 #@! TO.C,G119*
X44271500Y-53115000D03*
D29*
X43267500Y-53115000D03*
G04 #@! TD*
D17*
G04 #@! TO.C,D111*
X70495000Y-14155000D03*
X71640000Y-14155000D03*
G04 #@! TD*
D26*
G04 #@! TO.C,R116*
X27667500Y-20180000D03*
X27667500Y-21930000D03*
G04 #@! TD*
D21*
G04 #@! TO.C,C120*
X23767500Y-25580000D03*
X23767500Y-22330000D03*
G04 #@! TD*
D20*
G04 #@! TO.C,FB109*
X42067500Y-44212500D03*
X42067500Y-46287500D03*
G04 #@! TD*
D25*
G04 #@! TO.C,T\u002AC109*
X86367500Y-28355000D03*
X86367500Y-26630000D03*
G04 #@! TD*
D26*
G04 #@! TO.C,R116*
X71667500Y-48640000D03*
X71667500Y-50390000D03*
G04 #@! TD*
D32*
G04 #@! TO.C,SCL108*
X14463500Y-38715000D03*
D29*
X15467500Y-38715000D03*
G04 #@! TD*
D34*
G04 #@! TO.C,R128*
X34767500Y-57625000D03*
X34767500Y-56605000D03*
G04 #@! TD*
D15*
G04 #@! TO.C,OM1*
X58167500Y-16655000D03*
X58167500Y-15805000D03*
G04 #@! TD*
D20*
G04 #@! TO.C,FB109*
X42067500Y-15752500D03*
X42067500Y-17827500D03*
G04 #@! TD*
D15*
G04 #@! TO.C,INM1*
X39967500Y-15317500D03*
D16*
X39967500Y-16192500D03*
G04 #@! TD*
D20*
G04 #@! TO.C,FB109*
X86067500Y-15752500D03*
X86067500Y-17827500D03*
G04 #@! TD*
D21*
G04 #@! TO.C,C110*
X63467500Y-25580000D03*
X63467500Y-22330000D03*
G04 #@! TD*
M02*
