G04 #@! TF.GenerationSoftware,KiCad,Pcbnew,9.0.4*
G04 #@! TF.CreationDate,2025-08-20T18:17:53-04:00*
G04 #@! TF.ProjectId,jlc_pcba,6a6c635f-7063-4626-912e-6b696361645f,rev?*
G04 #@! TF.SameCoordinates,Original*
G04 #@! TF.FileFunction,Paste,Bot*
G04 #@! TF.FilePolarity,Positive*
%FSLAX46Y46*%
G04 Gerber Fmt 4.6, Leading zero omitted, Abs format (unit mm)*
G04 Created by KiCad (PCBNEW 9.0.4) date 2025-08-20 18:17:53*
%MOMM*%
%LPD*%
G01*
G04 APERTURE LIST*
G04 Aperture macros list*
%AMRoundRect*
0 Rectangle with rounded corners*
0 $1 Rounding radius*
0 $2 $3 $4 $5 $6 $7 $8 $9 X,Y pos of 4 corners*
0 Add a 4 corners polygon primitive as box body*
4,1,4,$2,$3,$4,$5,$6,$7,$8,$9,$2,$3,0*
0 Add four circle primitives for the rounded corners*
1,1,$1+$1,$2,$3*
1,1,$1+$1,$4,$5*
1,1,$1+$1,$6,$7*
1,1,$1+$1,$8,$9*
0 Add four rect primitives between the rounded corners*
20,1,$1+$1,$2,$3,$4,$5,0*
20,1,$1+$1,$4,$5,$6,$7,0*
20,1,$1+$1,$6,$7,$8,$9,0*
20,1,$1+$1,$8,$9,$2,$3,0*%
G04 Aperture macros list end*
%ADD10RoundRect,0.250000X-0.325000X-0.450000X0.325000X-0.450000X0.325000X0.450000X-0.325000X0.450000X0*%
%ADD11RoundRect,0.160000X0.222500X0.160000X-0.222500X0.160000X-0.222500X-0.160000X0.222500X-0.160000X0*%
%ADD12RoundRect,0.160000X0.197500X0.160000X-0.197500X0.160000X-0.197500X-0.160000X0.197500X-0.160000X0*%
%ADD13RoundRect,0.237500X-0.237500X0.300000X-0.237500X-0.300000X0.237500X-0.300000X0.237500X0.300000X0*%
%ADD14RoundRect,0.250000X-0.475000X0.337500X-0.475000X-0.337500X0.475000X-0.337500X0.475000X0.337500X0*%
%ADD15RoundRect,0.250001X0.924999X-0.499999X0.924999X0.499999X-0.924999X0.499999X-0.924999X-0.499999X0*%
%ADD16RoundRect,0.160000X-0.222500X-0.160000X0.222500X-0.160000X0.222500X0.160000X-0.222500X0.160000X0*%
%ADD17RoundRect,0.237500X-0.287500X-0.237500X0.287500X-0.237500X0.287500X0.237500X-0.287500X0.237500X0*%
%ADD18RoundRect,0.237500X0.237500X-0.300000X0.237500X0.300000X-0.237500X0.300000X-0.237500X-0.300000X0*%
%ADD19RoundRect,0.237500X-0.237500X0.287500X-0.237500X-0.287500X0.237500X-0.287500X0.237500X0.287500X0*%
%ADD20RoundRect,0.150000X0.150000X-0.512500X0.150000X0.512500X-0.150000X0.512500X-0.150000X-0.512500X0*%
%ADD21RoundRect,0.250000X0.325000X0.450000X-0.325000X0.450000X-0.325000X-0.450000X0.325000X-0.450000X0*%
%ADD22RoundRect,0.250001X-0.499999X-0.924999X0.499999X-0.924999X0.499999X0.924999X-0.499999X0.924999X0*%
%ADD23RoundRect,0.250000X0.475000X-0.337500X0.475000X0.337500X-0.475000X0.337500X-0.475000X-0.337500X0*%
%ADD24RoundRect,0.135000X0.185000X-0.135000X0.185000X0.135000X-0.185000X0.135000X-0.185000X-0.135000X0*%
%ADD25RoundRect,0.237500X0.287500X0.237500X-0.287500X0.237500X-0.287500X-0.237500X0.287500X-0.237500X0*%
G04 APERTURE END LIST*
D10*
G04 #@! TO.C,C131*
X14342500Y-59115000D03*
X16392500Y-59115000D03*
G04 #@! TD*
D11*
G04 #@! TO.C,D109*
X58195000Y-42615000D03*
X59340000Y-42615000D03*
G04 #@! TD*
D12*
G04 #@! TO.C,SCL109*
X33565000Y-56515000D03*
X32370000Y-56515000D03*
G04 #@! TD*
D11*
G04 #@! TO.C,D111*
X26495000Y-42615000D03*
X27640000Y-42615000D03*
G04 #@! TD*
G04 #@! TO.C,D111*
X26495000Y-14155000D03*
X27640000Y-14155000D03*
G04 #@! TD*
D13*
G04 #@! TO.C,C126*
X82767500Y-48052500D03*
X82767500Y-49777500D03*
G04 #@! TD*
G04 #@! TO.C,C127*
X80067500Y-19592500D03*
X80067500Y-21317500D03*
G04 #@! TD*
D14*
G04 #@! TO.C,FB108*
X45667500Y-15790000D03*
X45667500Y-17865000D03*
G04 #@! TD*
G04 #@! TO.C,FB108*
X89667500Y-15790000D03*
X89667500Y-17865000D03*
G04 #@! TD*
D11*
G04 #@! TO.C,D110*
X66795000Y-14155000D03*
X67940000Y-14155000D03*
G04 #@! TD*
D15*
G04 #@! TO.C,C110*
X19467500Y-54040000D03*
X19467500Y-50790000D03*
G04 #@! TD*
G04 #@! TO.C,C114*
X15167500Y-25580000D03*
X15167500Y-22330000D03*
G04 #@! TD*
D16*
G04 #@! TO.C,D112*
X46340000Y-42597500D03*
X45195000Y-42597500D03*
G04 #@! TD*
D11*
G04 #@! TO.C,D110*
X22795000Y-42615000D03*
X23940000Y-42615000D03*
G04 #@! TD*
D17*
G04 #@! TO.C,R108*
X18992500Y-48615000D03*
X20742500Y-48615000D03*
G04 #@! TD*
D18*
G04 #@! TO.C,C121*
X24167500Y-17917500D03*
X24167500Y-16192500D03*
G04 #@! TD*
D16*
G04 #@! TO.C,D113*
X86740000Y-42550000D03*
X85595000Y-42550000D03*
G04 #@! TD*
D10*
G04 #@! TO.C,C131*
X14342500Y-30655000D03*
X16392500Y-30655000D03*
G04 #@! TD*
D14*
G04 #@! TO.C,FB109*
X86067500Y-44212500D03*
X86067500Y-46287500D03*
G04 #@! TD*
D17*
G04 #@! TO.C,R111*
X23292500Y-20155000D03*
X25042500Y-20155000D03*
G04 #@! TD*
D16*
G04 #@! TO.C,D114*
X39140000Y-42550000D03*
X37995000Y-42550000D03*
G04 #@! TD*
D13*
G04 #@! TO.C,C126*
X82767500Y-19592500D03*
X82767500Y-21317500D03*
G04 #@! TD*
D11*
G04 #@! TO.C,D109*
X14195000Y-14155000D03*
X15340000Y-14155000D03*
G04 #@! TD*
D15*
G04 #@! TO.C,C120*
X67767500Y-25580000D03*
X67767500Y-22330000D03*
G04 #@! TD*
D13*
G04 #@! TO.C,C124*
X88967500Y-48052500D03*
X88967500Y-49777500D03*
G04 #@! TD*
D14*
G04 #@! TO.C,FB108*
X89667500Y-44250000D03*
X89667500Y-46325000D03*
G04 #@! TD*
D18*
G04 #@! TO.C,C121*
X68167500Y-17917500D03*
X68167500Y-16192500D03*
G04 #@! TD*
D13*
G04 #@! TO.C,C125*
X86367500Y-48152500D03*
X86367500Y-49877500D03*
G04 #@! TD*
G04 #@! TO.C,C127*
X80067500Y-48052500D03*
X80067500Y-49777500D03*
G04 #@! TD*
G04 #@! TO.C,C127*
X36067500Y-48052500D03*
X36067500Y-49777500D03*
G04 #@! TD*
G04 #@! TO.C,C125*
X42367500Y-48152500D03*
X42367500Y-49877500D03*
G04 #@! TD*
D16*
G04 #@! TO.C,D112*
X90340000Y-42597500D03*
X89195000Y-42597500D03*
G04 #@! TD*
D18*
G04 #@! TO.C,C121*
X68167500Y-46377500D03*
X68167500Y-44652500D03*
G04 #@! TD*
D11*
G04 #@! TO.C,D110*
X66795000Y-42615000D03*
X67940000Y-42615000D03*
G04 #@! TD*
D13*
G04 #@! TO.C,C126*
X38767500Y-19592500D03*
X38767500Y-21317500D03*
G04 #@! TD*
D19*
G04 #@! TO.C,R116*
X71667500Y-20180000D03*
X71667500Y-21930000D03*
G04 #@! TD*
D16*
G04 #@! TO.C,D114*
X83140000Y-42550000D03*
X81995000Y-42550000D03*
G04 #@! TD*
D11*
G04 #@! TO.C,D110*
X22795000Y-14155000D03*
X23940000Y-14155000D03*
G04 #@! TD*
D18*
G04 #@! TO.C,C123*
X28067500Y-46377500D03*
X28067500Y-44652500D03*
G04 #@! TD*
D20*
G04 #@! TO.C,U109*
X40329314Y-28607500D03*
X39379314Y-28607500D03*
X38429314Y-28607500D03*
X38429314Y-26332500D03*
X40329314Y-26332500D03*
G04 #@! TD*
D13*
G04 #@! TO.C,C127*
X36067500Y-19592500D03*
X36067500Y-21317500D03*
G04 #@! TD*
D18*
G04 #@! TO.C,C113*
X19867500Y-46377500D03*
X19867500Y-44652500D03*
G04 #@! TD*
D21*
G04 #@! TO.C,C130*
X60392500Y-28455000D03*
X58342500Y-28455000D03*
G04 #@! TD*
D16*
G04 #@! TO.C,D113*
X42740000Y-42550000D03*
X41595000Y-42550000D03*
G04 #@! TD*
D14*
G04 #@! TO.C,T\u002AC110*
X80567500Y-54677500D03*
X80567500Y-56752500D03*
G04 #@! TD*
D16*
G04 #@! TO.C,D115*
X35540000Y-42415000D03*
X34395000Y-42415000D03*
G04 #@! TD*
D21*
G04 #@! TO.C,C130*
X60392500Y-56915000D03*
X58342500Y-56915000D03*
G04 #@! TD*
D11*
G04 #@! TO.C,D108*
X62495000Y-42615000D03*
X63640000Y-42615000D03*
G04 #@! TD*
D15*
G04 #@! TO.C,C110*
X19467500Y-25580000D03*
X19467500Y-22330000D03*
G04 #@! TD*
D13*
G04 #@! TO.C,C129*
X78517117Y-53440582D03*
X78517117Y-55165582D03*
G04 #@! TD*
D11*
G04 #@! TO.C,D108*
X62495000Y-14155000D03*
X63640000Y-14155000D03*
G04 #@! TD*
D22*
G04 #@! TO.C,C122*
X27267501Y-53315000D03*
X30517501Y-53315000D03*
G04 #@! TD*
D18*
G04 #@! TO.C,T\u002AC109*
X86367500Y-56815000D03*
X86367500Y-55090000D03*
G04 #@! TD*
G04 #@! TO.C,C113*
X63867500Y-46377500D03*
X63867500Y-44652500D03*
G04 #@! TD*
D15*
G04 #@! TO.C,C114*
X59167500Y-54040000D03*
X59167500Y-50790000D03*
G04 #@! TD*
D16*
G04 #@! TO.C,D113*
X86740000Y-14090000D03*
X85595000Y-14090000D03*
G04 #@! TD*
D17*
G04 #@! TO.C,R111*
X67292500Y-20155000D03*
X69042500Y-20155000D03*
G04 #@! TD*
D20*
G04 #@! TO.C,U109*
X84329314Y-57067500D03*
X83379314Y-57067500D03*
X82429314Y-57067500D03*
X82429314Y-54792500D03*
X84329314Y-54792500D03*
G04 #@! TD*
D13*
G04 #@! TO.C,C126*
X38767500Y-48052500D03*
X38767500Y-49777500D03*
G04 #@! TD*
D14*
G04 #@! TO.C,T\u002AC110*
X80567500Y-26217500D03*
X80567500Y-28292500D03*
G04 #@! TD*
D18*
G04 #@! TO.C,T\u002AC109*
X42367500Y-56815000D03*
X42367500Y-55090000D03*
G04 #@! TD*
D22*
G04 #@! TO.C,C122*
X27267501Y-24855000D03*
X30517501Y-24855000D03*
G04 #@! TD*
D23*
G04 #@! TO.C,T\u002AC108*
X88301814Y-28530000D03*
X88301814Y-26455000D03*
G04 #@! TD*
D18*
G04 #@! TO.C,C117*
X59567500Y-46377500D03*
X59567500Y-44652500D03*
G04 #@! TD*
D13*
G04 #@! TO.C,C124*
X88967500Y-19592500D03*
X88967500Y-21317500D03*
G04 #@! TD*
D15*
G04 #@! TO.C,C120*
X23767500Y-54040000D03*
X23767500Y-50790000D03*
G04 #@! TD*
D18*
G04 #@! TO.C,C117*
X15567500Y-46377500D03*
X15567500Y-44652500D03*
G04 #@! TD*
D14*
G04 #@! TO.C,FB111*
X78867500Y-15517500D03*
X78867500Y-17592500D03*
G04 #@! TD*
D17*
G04 #@! TO.C,R108*
X62992500Y-20155000D03*
X64742500Y-20155000D03*
G04 #@! TD*
D23*
G04 #@! TO.C,T\u002AC108*
X44301814Y-28530000D03*
X44301814Y-26455000D03*
G04 #@! TD*
D14*
G04 #@! TO.C,FB110*
X82467500Y-44140000D03*
X82467500Y-46215000D03*
G04 #@! TD*
D16*
G04 #@! TO.C,D113*
X42740000Y-14090000D03*
X41595000Y-14090000D03*
G04 #@! TD*
D14*
G04 #@! TO.C,FB110*
X38467500Y-15680000D03*
X38467500Y-17755000D03*
G04 #@! TD*
D10*
G04 #@! TO.C,C131*
X58342500Y-59115000D03*
X60392500Y-59115000D03*
G04 #@! TD*
D18*
G04 #@! TO.C,C113*
X63867500Y-17917500D03*
X63867500Y-16192500D03*
G04 #@! TD*
G04 #@! TO.C,C121*
X24167500Y-46377500D03*
X24167500Y-44652500D03*
G04 #@! TD*
D14*
G04 #@! TO.C,FB110*
X82467500Y-15680000D03*
X82467500Y-17755000D03*
G04 #@! TD*
D16*
G04 #@! TO.C,D115*
X79540000Y-42415000D03*
X78395000Y-42415000D03*
G04 #@! TD*
D11*
G04 #@! TO.C,D108*
X18495000Y-14155000D03*
X19640000Y-14155000D03*
G04 #@! TD*
D15*
G04 #@! TO.C,C110*
X63467500Y-54040000D03*
X63467500Y-50790000D03*
G04 #@! TD*
D13*
G04 #@! TO.C,C124*
X44967500Y-48052500D03*
X44967500Y-49777500D03*
G04 #@! TD*
D15*
G04 #@! TO.C,C114*
X59167500Y-25580000D03*
X59167500Y-22330000D03*
G04 #@! TD*
D24*
G04 #@! TO.C,R128*
X34767500Y-29165000D03*
X34767500Y-28145000D03*
G04 #@! TD*
D23*
G04 #@! TO.C,T\u002AC108*
X88301814Y-56990000D03*
X88301814Y-54915000D03*
G04 #@! TD*
D12*
G04 #@! TO.C,SCL109*
X77565000Y-56515000D03*
X76370000Y-56515000D03*
G04 #@! TD*
D13*
G04 #@! TO.C,C125*
X42367500Y-19692500D03*
X42367500Y-21417500D03*
G04 #@! TD*
D12*
G04 #@! TO.C,SCL109*
X77565000Y-28055000D03*
X76370000Y-28055000D03*
G04 #@! TD*
D17*
G04 #@! TO.C,R111*
X23292500Y-48615000D03*
X25042500Y-48615000D03*
G04 #@! TD*
D18*
G04 #@! TO.C,C117*
X15567500Y-17917500D03*
X15567500Y-16192500D03*
G04 #@! TD*
D19*
G04 #@! TO.C,R116*
X27667500Y-48640000D03*
X27667500Y-50390000D03*
G04 #@! TD*
D14*
G04 #@! TO.C,T\u002AC110*
X36567500Y-26217500D03*
X36567500Y-28292500D03*
G04 #@! TD*
D24*
G04 #@! TO.C,R128*
X78767500Y-29165000D03*
X78767500Y-28145000D03*
G04 #@! TD*
D11*
G04 #@! TO.C,D108*
X18495000Y-42615000D03*
X19640000Y-42615000D03*
G04 #@! TD*
D17*
G04 #@! TO.C,R108*
X62992500Y-48615000D03*
X64742500Y-48615000D03*
G04 #@! TD*
D12*
G04 #@! TO.C,SCL109*
X33565000Y-28055000D03*
X32370000Y-28055000D03*
G04 #@! TD*
D18*
G04 #@! TO.C,C123*
X72067500Y-46377500D03*
X72067500Y-44652500D03*
G04 #@! TD*
D16*
G04 #@! TO.C,D112*
X90340000Y-14137500D03*
X89195000Y-14137500D03*
G04 #@! TD*
D11*
G04 #@! TO.C,D109*
X58195000Y-14155000D03*
X59340000Y-14155000D03*
G04 #@! TD*
D21*
G04 #@! TO.C,C130*
X16392500Y-56915000D03*
X14342500Y-56915000D03*
G04 #@! TD*
G04 #@! TO.C,C130*
X16392500Y-28455000D03*
X14342500Y-28455000D03*
G04 #@! TD*
D14*
G04 #@! TO.C,T\u002AC110*
X36567500Y-54677500D03*
X36567500Y-56752500D03*
G04 #@! TD*
D22*
G04 #@! TO.C,C122*
X71267501Y-53315000D03*
X74517501Y-53315000D03*
G04 #@! TD*
D25*
G04 #@! TO.C,R109*
X60442500Y-48615000D03*
X58692500Y-48615000D03*
G04 #@! TD*
D10*
G04 #@! TO.C,C131*
X58342500Y-30655000D03*
X60392500Y-30655000D03*
G04 #@! TD*
D13*
G04 #@! TO.C,C129*
X34517117Y-24980582D03*
X34517117Y-26705582D03*
G04 #@! TD*
G04 #@! TO.C,C129*
X34517117Y-53440582D03*
X34517117Y-55165582D03*
G04 #@! TD*
D18*
G04 #@! TO.C,C117*
X59567500Y-17917500D03*
X59567500Y-16192500D03*
G04 #@! TD*
D20*
G04 #@! TO.C,U109*
X40329314Y-57067500D03*
X39379314Y-57067500D03*
X38429314Y-57067500D03*
X38429314Y-54792500D03*
X40329314Y-54792500D03*
G04 #@! TD*
D14*
G04 #@! TO.C,FB111*
X34867500Y-15517500D03*
X34867500Y-17592500D03*
G04 #@! TD*
D25*
G04 #@! TO.C,R109*
X16442500Y-20155000D03*
X14692500Y-20155000D03*
G04 #@! TD*
D18*
G04 #@! TO.C,T\u002AC109*
X42367500Y-28355000D03*
X42367500Y-26630000D03*
G04 #@! TD*
D16*
G04 #@! TO.C,D114*
X39140000Y-14090000D03*
X37995000Y-14090000D03*
G04 #@! TD*
D14*
G04 #@! TO.C,FB110*
X38467500Y-44140000D03*
X38467500Y-46215000D03*
G04 #@! TD*
D23*
G04 #@! TO.C,T\u002AC108*
X44301814Y-56990000D03*
X44301814Y-54915000D03*
G04 #@! TD*
D15*
G04 #@! TO.C,C114*
X15167500Y-54040000D03*
X15167500Y-50790000D03*
G04 #@! TD*
D17*
G04 #@! TO.C,R111*
X67292500Y-48615000D03*
X69042500Y-48615000D03*
G04 #@! TD*
D14*
G04 #@! TO.C,FB108*
X45667500Y-44250000D03*
X45667500Y-46325000D03*
G04 #@! TD*
D22*
G04 #@! TO.C,C122*
X71267501Y-24855000D03*
X74517501Y-24855000D03*
G04 #@! TD*
D11*
G04 #@! TO.C,D111*
X70495000Y-42615000D03*
X71640000Y-42615000D03*
G04 #@! TD*
D18*
G04 #@! TO.C,C123*
X28067500Y-17917500D03*
X28067500Y-16192500D03*
G04 #@! TD*
D11*
G04 #@! TO.C,D109*
X14195000Y-42615000D03*
X15340000Y-42615000D03*
G04 #@! TD*
D16*
G04 #@! TO.C,D115*
X79540000Y-13955000D03*
X78395000Y-13955000D03*
G04 #@! TD*
D25*
G04 #@! TO.C,R109*
X16442500Y-48615000D03*
X14692500Y-48615000D03*
G04 #@! TD*
D14*
G04 #@! TO.C,FB111*
X78867500Y-43977500D03*
X78867500Y-46052500D03*
G04 #@! TD*
D24*
G04 #@! TO.C,R128*
X78767500Y-57625000D03*
X78767500Y-56605000D03*
G04 #@! TD*
D17*
G04 #@! TO.C,R108*
X18992500Y-20155000D03*
X20742500Y-20155000D03*
G04 #@! TD*
D16*
G04 #@! TO.C,D114*
X83140000Y-14090000D03*
X81995000Y-14090000D03*
G04 #@! TD*
D25*
G04 #@! TO.C,R109*
X60442500Y-20155000D03*
X58692500Y-20155000D03*
G04 #@! TD*
D16*
G04 #@! TO.C,D115*
X35540000Y-13955000D03*
X34395000Y-13955000D03*
G04 #@! TD*
D15*
G04 #@! TO.C,C120*
X67767500Y-54040000D03*
X67767500Y-50790000D03*
G04 #@! TD*
D14*
G04 #@! TO.C,FB111*
X34867500Y-43977500D03*
X34867500Y-46052500D03*
G04 #@! TD*
D13*
G04 #@! TO.C,C125*
X86367500Y-19692500D03*
X86367500Y-21417500D03*
G04 #@! TD*
D18*
G04 #@! TO.C,C113*
X19867500Y-17917500D03*
X19867500Y-16192500D03*
G04 #@! TD*
D16*
G04 #@! TO.C,D112*
X46340000Y-14137500D03*
X45195000Y-14137500D03*
G04 #@! TD*
D20*
G04 #@! TO.C,U109*
X84329314Y-28607500D03*
X83379314Y-28607500D03*
X82429314Y-28607500D03*
X82429314Y-26332500D03*
X84329314Y-26332500D03*
G04 #@! TD*
D18*
G04 #@! TO.C,C123*
X72067500Y-17917500D03*
X72067500Y-16192500D03*
G04 #@! TD*
D13*
G04 #@! TO.C,C124*
X44967500Y-19592500D03*
X44967500Y-21317500D03*
G04 #@! TD*
G04 #@! TO.C,C129*
X78517117Y-24980582D03*
X78517117Y-26705582D03*
G04 #@! TD*
D11*
G04 #@! TO.C,D111*
X70495000Y-14155000D03*
X71640000Y-14155000D03*
G04 #@! TD*
D19*
G04 #@! TO.C,R116*
X27667500Y-20180000D03*
X27667500Y-21930000D03*
G04 #@! TD*
D15*
G04 #@! TO.C,C120*
X23767500Y-25580000D03*
X23767500Y-22330000D03*
G04 #@! TD*
D14*
G04 #@! TO.C,FB109*
X42067500Y-44212500D03*
X42067500Y-46287500D03*
G04 #@! TD*
D18*
G04 #@! TO.C,T\u002AC109*
X86367500Y-28355000D03*
X86367500Y-26630000D03*
G04 #@! TD*
D19*
G04 #@! TO.C,R116*
X71667500Y-48640000D03*
X71667500Y-50390000D03*
G04 #@! TD*
D24*
G04 #@! TO.C,R128*
X34767500Y-57625000D03*
X34767500Y-56605000D03*
G04 #@! TD*
D14*
G04 #@! TO.C,FB109*
X42067500Y-15752500D03*
X42067500Y-17827500D03*
G04 #@! TD*
G04 #@! TO.C,FB109*
X86067500Y-15752500D03*
X86067500Y-17827500D03*
G04 #@! TD*
D15*
G04 #@! TO.C,C110*
X63467500Y-25580000D03*
X63467500Y-22330000D03*
G04 #@! TD*
M02*
