G04 #@! TF.GenerationSoftware,KiCad,Pcbnew,9.0.4*
G04 #@! TF.CreationDate,2025-08-20T18:17:53-04:00*
G04 #@! TF.ProjectId,jlc_pcba,6a6c635f-7063-4626-912e-6b696361645f,rev?*
G04 #@! TF.SameCoordinates,Original*
G04 #@! TF.FileFunction,Profile,NP*
%FSLAX46Y46*%
G04 Gerber Fmt 4.6, Leading zero omitted, Abs format (unit mm)*
G04 Created by KiCad (PCBNEW 9.0.4) date 2025-08-20 18:17:53*
%MOMM*%
%LPD*%
G01*
G04 APERTURE LIST*
G04 #@! TA.AperFunction,Profile*
%ADD10C,0.100000*%
G04 #@! TD*
G04 APERTURE END LIST*
D10*
X73500000Y-61920000D02*
X81000000Y-61920000D01*
X51000000Y-33460000D02*
X60000000Y-33460000D01*
X5000000Y-23140000D02*
X5000000Y-17320000D01*
X63000000Y-61920000D02*
X70500000Y-61920000D01*
X60000000Y-35460000D02*
X51000000Y-35460000D01*
X7000000Y-45780000D02*
X7000000Y-51600000D01*
X51000000Y-45780000D02*
X51000000Y-51600000D01*
X7000000Y-54600000D02*
X7000000Y-61920000D01*
X49999000Y-54600000D02*
X50001000Y-54600000D01*
X7000000Y-51600000D02*
X5000000Y-51600000D01*
X95000000Y-54600000D02*
X95000000Y-63920000D01*
X84000000Y-34459000D02*
X84000000Y-33460000D01*
X73500000Y-34461000D02*
X73500000Y-34459000D01*
X50001000Y-51600000D02*
X49999000Y-51600000D01*
X37000000Y-7000000D02*
X29500000Y-7000000D01*
X5000000Y-51600000D02*
X5000000Y-45780000D01*
X70500000Y-34461000D02*
X70500000Y-35460000D01*
X29500000Y-34459000D02*
X29500000Y-33460000D01*
X93000000Y-51600000D02*
X93000000Y-45780000D01*
X51000000Y-14320000D02*
X50001000Y-14320000D01*
X81000000Y-63920000D02*
X73500000Y-63920000D01*
X93000000Y-17320000D02*
X95000000Y-17320000D01*
X73500000Y-63920000D02*
X73500000Y-61920000D01*
X7000000Y-7000000D02*
X7000000Y-14320000D01*
X70500000Y-35460000D02*
X63000000Y-35460000D01*
X63000000Y-5000000D02*
X70500000Y-5000000D01*
X7000000Y-35460000D02*
X7000000Y-42780000D01*
X70500000Y-34459000D02*
X70500000Y-34461000D01*
X84000000Y-35460000D02*
X84000000Y-34461000D01*
X63000000Y-33460000D02*
X70500000Y-33460000D01*
X16000000Y-5000000D02*
X16000000Y-7000000D01*
X60000000Y-63920000D02*
X40000000Y-63920000D01*
X7000000Y-14320000D02*
X5000000Y-14320000D01*
X50001000Y-26140000D02*
X51000000Y-26140000D01*
X49000000Y-7000000D02*
X40000000Y-7000000D01*
X49999000Y-45780000D02*
X50001000Y-45780000D01*
X37000000Y-35460000D02*
X29500000Y-35460000D01*
X29500000Y-35460000D02*
X29500000Y-34461000D01*
X26500000Y-34461000D02*
X26500000Y-35460000D01*
X73500000Y-7000000D02*
X73500000Y-5000000D01*
X40000000Y-34459000D02*
X40000000Y-33460000D01*
X51000000Y-7000000D02*
X51000000Y-14320000D01*
X49000000Y-45780000D02*
X49999000Y-45780000D01*
X95000000Y-17320000D02*
X95000000Y-23140000D01*
X29500000Y-7000000D02*
X29500000Y-5000000D01*
X51000000Y-17320000D02*
X51000000Y-23140000D01*
X40000000Y-7000000D02*
X40000000Y-5000000D01*
X16000000Y-33460000D02*
X16000000Y-34459000D01*
X16000000Y-34461000D02*
X16000000Y-35460000D01*
X84000000Y-7000000D02*
X84000000Y-5000000D01*
X51000000Y-35460000D02*
X51000000Y-42780000D01*
X7000000Y-42780000D02*
X5000000Y-42780000D01*
X50001000Y-54600000D02*
X51000000Y-54600000D01*
X19000000Y-34461000D02*
X19000000Y-34459000D01*
X5000000Y-5000000D02*
X16000000Y-5000000D01*
X5000000Y-45780000D02*
X7000000Y-45780000D01*
X84000000Y-5000000D02*
X95000000Y-5000000D01*
X7000000Y-61920000D02*
X16000000Y-61920000D01*
X63000000Y-34461000D02*
X63000000Y-34459000D01*
X26500000Y-5000000D02*
X26500000Y-7000000D01*
X29500000Y-63920000D02*
X29500000Y-61920000D01*
X37000000Y-34461000D02*
X37000000Y-35460000D01*
X70500000Y-33460000D02*
X70500000Y-34459000D01*
X49000000Y-54600000D02*
X49999000Y-54600000D01*
X95000000Y-26140000D02*
X95000000Y-42780000D01*
X60000000Y-34461000D02*
X60000000Y-35460000D01*
X26500000Y-35460000D02*
X19000000Y-35460000D01*
X26500000Y-61920000D02*
X26500000Y-63920000D01*
X51000000Y-61920000D02*
X60000000Y-61920000D01*
X70500000Y-5000000D02*
X70500000Y-7000000D01*
X63000000Y-34459000D02*
X63000000Y-33460000D01*
X37000000Y-34459000D02*
X37000000Y-34461000D01*
X5000000Y-42780000D02*
X5000000Y-26140000D01*
X40000000Y-5000000D02*
X60000000Y-5000000D01*
X7000000Y-26140000D02*
X7000000Y-33460000D01*
X63000000Y-35460000D02*
X63000000Y-34461000D01*
X70500000Y-63920000D02*
X63000000Y-63920000D01*
X49000000Y-26140000D02*
X49999000Y-26140000D01*
X60000000Y-7000000D02*
X51000000Y-7000000D01*
X37000000Y-33460000D02*
X37000000Y-34459000D01*
X19000000Y-63920000D02*
X19000000Y-61920000D01*
X84000000Y-34461000D02*
X84000000Y-34459000D01*
X40000000Y-34461000D02*
X40000000Y-34459000D01*
X81000000Y-35460000D02*
X73500000Y-35460000D01*
X95000000Y-5000000D02*
X95000000Y-14320000D01*
X51000000Y-26140000D02*
X51000000Y-33460000D01*
X93000000Y-26140000D02*
X95000000Y-26140000D01*
X16000000Y-61920000D02*
X16000000Y-63920000D01*
X26500000Y-33460000D02*
X26500000Y-34459000D01*
X84000000Y-63920000D02*
X84000000Y-61920000D01*
X49000000Y-14320000D02*
X49000000Y-7000000D01*
X49999000Y-23140000D02*
X49000000Y-23140000D01*
X51000000Y-23140000D02*
X50001000Y-23140000D01*
X60000000Y-5000000D02*
X60000000Y-7000000D01*
X49999000Y-17320000D02*
X50001000Y-17320000D01*
X0Y0D02*
X0Y-68920000D01*
X93000000Y-42780000D02*
X93000000Y-35460000D01*
X73500000Y-35460000D02*
X73500000Y-34461000D01*
X49000000Y-35460000D02*
X40000000Y-35460000D01*
X29500000Y-33460000D02*
X37000000Y-33460000D01*
X84000000Y-33460000D02*
X93000000Y-33460000D01*
X84000000Y-61920000D02*
X93000000Y-61920000D01*
X50001000Y-42780000D02*
X49999000Y-42780000D01*
X49999000Y-42780000D02*
X49000000Y-42780000D01*
X5000000Y-14320000D02*
X5000000Y-5000000D01*
X40000000Y-33460000D02*
X49000000Y-33460000D01*
X37000000Y-5000000D02*
X37000000Y-7000000D01*
X93000000Y-54600000D02*
X95000000Y-54600000D01*
X70500000Y-7000000D02*
X63000000Y-7000000D01*
X63000000Y-7000000D02*
X63000000Y-5000000D01*
X49999000Y-14320000D02*
X49000000Y-14320000D01*
X29500000Y-34461000D02*
X29500000Y-34459000D01*
X93000000Y-35460000D02*
X84000000Y-35460000D01*
X49999000Y-51600000D02*
X49000000Y-51600000D01*
X49999000Y-26140000D02*
X50001000Y-26140000D01*
X19000000Y-61920000D02*
X26500000Y-61920000D01*
X81000000Y-34459000D02*
X81000000Y-34461000D01*
X7000000Y-33460000D02*
X16000000Y-33460000D01*
X81000000Y-7000000D02*
X73500000Y-7000000D01*
X49000000Y-42780000D02*
X49000000Y-35460000D01*
X100000000Y0D02*
X0Y0D01*
X19000000Y-7000000D02*
X19000000Y-5000000D01*
X19000000Y-34459000D02*
X19000000Y-33460000D01*
X19000000Y-35460000D02*
X19000000Y-34461000D01*
X95000000Y-63920000D02*
X84000000Y-63920000D01*
X40000000Y-63920000D02*
X40000000Y-61920000D01*
X51000000Y-42780000D02*
X50001000Y-42780000D01*
X16000000Y-34459000D02*
X16000000Y-34461000D01*
X16000000Y-63920000D02*
X5000000Y-63920000D01*
X93000000Y-45780000D02*
X95000000Y-45780000D01*
X40000000Y-61920000D02*
X49000000Y-61920000D01*
X50001000Y-17320000D02*
X51000000Y-17320000D01*
X37000000Y-61920000D02*
X37000000Y-63920000D01*
X29500000Y-61920000D02*
X37000000Y-61920000D01*
X5000000Y-63920000D02*
X5000000Y-54600000D01*
X51000000Y-51600000D02*
X50001000Y-51600000D01*
X60000000Y-34459000D02*
X60000000Y-34461000D01*
X50001000Y-14320000D02*
X49999000Y-14320000D01*
X95000000Y-14320000D02*
X93000000Y-14320000D01*
X40000000Y-35460000D02*
X40000000Y-34461000D01*
X60000000Y-61920000D02*
X60000000Y-63920000D01*
X49000000Y-51600000D02*
X49000000Y-45780000D01*
X19000000Y-5000000D02*
X26500000Y-5000000D01*
X81000000Y-61920000D02*
X81000000Y-63920000D01*
X26500000Y-34459000D02*
X26500000Y-34461000D01*
X26500000Y-63920000D02*
X19000000Y-63920000D01*
X49000000Y-17320000D02*
X49999000Y-17320000D01*
X5000000Y-17320000D02*
X7000000Y-17320000D01*
X49000000Y-33460000D02*
X49000000Y-26140000D01*
X73500000Y-34459000D02*
X73500000Y-33460000D01*
X81000000Y-5000000D02*
X81000000Y-7000000D01*
X7000000Y-23140000D02*
X5000000Y-23140000D01*
X0Y-68920000D02*
X100000000Y-68920000D01*
X49000000Y-61920000D02*
X49000000Y-54600000D01*
X50001000Y-23140000D02*
X49999000Y-23140000D01*
X29500000Y-5000000D02*
X37000000Y-5000000D01*
X93000000Y-23140000D02*
X93000000Y-17320000D01*
X93000000Y-7000000D02*
X84000000Y-7000000D01*
X7000000Y-17320000D02*
X7000000Y-23140000D01*
X63000000Y-63920000D02*
X63000000Y-61920000D01*
X95000000Y-45780000D02*
X95000000Y-51600000D01*
X100000000Y-68920000D02*
X100000000Y0D01*
X70500000Y-61920000D02*
X70500000Y-63920000D01*
X5000000Y-54600000D02*
X7000000Y-54600000D01*
X73500000Y-5000000D02*
X81000000Y-5000000D01*
X95000000Y-51600000D02*
X93000000Y-51600000D01*
X73500000Y-33460000D02*
X81000000Y-33460000D01*
X81000000Y-33460000D02*
X81000000Y-34459000D01*
X95000000Y-23140000D02*
X93000000Y-23140000D01*
X51000000Y-54600000D02*
X51000000Y-61920000D01*
X81000000Y-34461000D02*
X81000000Y-35460000D01*
X49000000Y-23140000D02*
X49000000Y-17320000D01*
X19000000Y-33460000D02*
X26500000Y-33460000D01*
X5000000Y-26140000D02*
X7000000Y-26140000D01*
X93000000Y-33460000D02*
X93000000Y-26140000D01*
X95000000Y-42780000D02*
X93000000Y-42780000D01*
X60000000Y-33460000D02*
X60000000Y-34459000D01*
X93000000Y-14320000D02*
X93000000Y-7000000D01*
X26500000Y-7000000D02*
X19000000Y-7000000D01*
X50001000Y-45780000D02*
X51000000Y-45780000D01*
X37000000Y-63920000D02*
X29500000Y-63920000D01*
X93000000Y-61920000D02*
X93000000Y-54600000D01*
X16000000Y-35460000D02*
X7000000Y-35460000D01*
X16000000Y-7000000D02*
X7000000Y-7000000D01*
M02*
